<?xml version="1.0" encoding="UTF-8" standalone="no"?>
<svg
   id="svg"
   version="1.1"
   width="32"
   height="32"
   viewBox="0 0 400 400"
   sodipodi:docname="input.svg"
   xmlns:inkscape="http://www.inkscape.org/namespaces/inkscape"
   xmlns:sodipodi="http://sodipodi.sourceforge.net/DTD/sodipodi-0.dtd"
   xmlns="http://www.w3.org/2000/svg"
   xmlns:svg="http://www.w3.org/2000/svg">
  <defs
     id="defs11" />
  <sodipodi:namedview
     id="namedview9"
     pagecolor="#ffffff"
     bordercolor="#000000"
     borderopacity="0.25"
     inkscape:showpageshadow="2"
     inkscape:pageopacity="0.0"
     inkscape:pagecheckerboard="0"
     inkscape:deskcolor="#d1d1d1" />
  <g
     id="svgg">
    <path
       id="path0"
       d="m 35.793,81.081 c -1.221,0.465 -1.437,2.302 -0.663,5.654 0.679,2.942 0.048,3.302 -5.79,3.302 -5.805,0 -6.091,0.414 -4.777,6.908 0.345,1.704 -0.772,2.159 -3.524,1.436 -3.116,-0.819 -3.854,0.361 -3.457,5.523 0.289,3.762 0.233,3.831 -3.099,3.839 -4.262,0.011 -3.86,-2.959 -3.821,28.233 0.024,19.202 -0.199,17.899 3.053,17.899 2.591,0 2.828,0.538 3.126,7.09 0.277,6.092 0.529,6.558 3.151,5.806 2.853,-0.818 3.993,0.477 3.993,4.535 0,3.957 0.558,4.531 4.081,4.204 3.368,-0.313 3.668,-0.002 3.668,3.811 0,4.343 0.841,5.042 5.201,4.325 2.625,-0.432 3.399,0.385 3.592,3.789 0.213,3.774 1.102,3.918 23.864,3.868 17.101,-0.037 19.373,-0.466 19.373,-3.654 0,-3.896 0.359,-4.197 5.477,-4.603 4.08,-0.322 4.118,-0.362 3.848,-3.93 l -0.203,-2.681 1.251,-0.762 c 0.786,-0.48 1.884,-0.763 2.957,-0.764 4.21,-0.003 5.555,-1.204 4.784,-4.268 -0.904,-3.588 0.218,-4.737 4.308,-4.412 3.996,0.317 4.015,0.295 3.447,-4.045 -0.721,-5.514 0.021,-7.94 2.603,-8.507 2.387,-0.524 2.328,0.035 2.45,-23.217 0.129,-24.645 0.565,-22.343 -4.285,-22.62 -4.37,-0.249 -4.393,-0.277 -3.842,-4.642 0.555,-4.396 0.472,-4.49 -3.958,-4.49 -3.973,0 -3.828,0.132 -3.743,-3.426 0.125,-5.192 -0.194,-5.468 -6.744,-5.832 -5.554,-0.309 -5.398,-0.172 -5.398,-4.726 0,-2.735 -0.094,-3.198 -0.714,-3.53 C 85.248,80.79 36.844,80.681 35.793,81.081 m 278.302,-0.002 c -2.331,0.169 -2.319,0.146 -2.405,4.508 -0.046,2.358 -0.215,3.462 -0.56,3.675 -0.811,0.501 -6.036,0.784 -7.624,0.414 -2.195,-0.512 -2.567,0.043 -2.66,3.972 -0.122,5.179 -0.381,5.487 -3.792,4.509 -2.564,-0.736 -3.626,0.581 -2.916,3.613 0.866,3.701 -0.023,6.02 -2.018,5.261 -1.52,-0.578 -4.242,-0.022 -5.075,1.037 -0.743,0.944 -0.752,1.273 -0.634,22.957 0.132,24.079 0.046,23.219 2.315,23.219 2.456,0 3.457,2.326 3.503,8.136 0.027,3.449 0.235,3.672 3.417,3.672 3.602,0 3.985,0.463 3.985,4.821 0,4.846 1.045,5.691 5.47,4.422 2.696,-0.773 3.755,0.749 3.755,5.397 0,3.292 0.217,3.441 5.024,3.441 h 3.132 l 0.535,1.28 c 0.294,0.703 0.534,1.84 0.534,2.525 0,2.867 0.321,2.915 19.926,2.976 21.386,0.067 22.127,-0.03 22.149,-2.885 0.033,-4.176 1.005,-5.151 4.834,-4.848 3.948,0.313 4.358,-0.061 4.509,-4.119 0.138,-3.679 -0.117,-3.409 3.758,-3.981 4.476,-0.661 5.339,-1.555 5.687,-5.893 l 0.207,-2.583 3.283,-0.25 c 4.075,-0.31 4,-0.196 3.716,-5.654 -0.274,-5.255 0.299,-6.702 2.897,-7.316 2.764,-0.654 2.65,0.355 2.65,-23.453 0,-24.482 0.435,-22.183 -4.196,-22.183 -4.435,0 -4.651,-0.298 -3.491,-4.823 0.342,-1.334 0.521,-2.688 0.398,-3.009 -0.311,-0.808 -3.722,-1.476 -6.051,-1.186 -2.545,0.318 -2.94,-0.315 -2.082,-3.334 1.177,-4.134 -0.167,-5.196 -7.061,-5.579 -5.63,-0.313 -5.544,-0.241 -5.285,-4.388 0.308,-4.93 3.04,-4.429 -24.323,-4.463 -12.955,-0.016 -24.435,0.035 -25.511,0.112 M 67.601,91.921 c 0.548,0.294 0.665,0.834 0.665,3.084 0,3.716 0.703,4.517 2.767,3.15 2.426,-1.606 3.56,-0.761 3.418,2.548 -0.053,1.251 0.069,2.394 0.272,2.539 1.662,1.187 2.209,4.256 1.625,9.12 -0.488,4.061 -0.924,4.882 -2.678,5.053 -1.628,0.158 -2.49,2.019 -2.574,5.553 l -0.063,2.678 h -2.767 c -3.621,0 -3.826,0.152 -3.518,2.614 0.243,1.942 0.231,1.975 -0.793,2.185 -0.572,0.117 -1.621,0.392 -2.331,0.61 -0.711,0.217 -4.128,0.478 -7.595,0.578 l -6.302,0.182 -2.254,-1.173 c -1.813,-0.943 -2.397,-1.095 -2.99,-0.778 -1.132,0.605 -1.871,0.478 -3.067,-0.528 -0.603,-0.508 -1.317,-0.923 -1.586,-0.923 -0.269,0 -1.045,-0.481 -1.724,-1.069 -0.679,-0.588 -2.262,-1.913 -3.518,-2.946 -2.772,-2.279 -2.818,-2.473 -2.639,-11.212 0.159,-7.821 1.526,-10.098 4.605,-7.676 1.857,1.461 3.284,0.622 2.351,-1.382 -1.367,-2.938 -0.535,-4.814 3.141,-7.086 l 1.212,-0.749 1.333,0.787 c 2.203,1.299 3.264,-0.666 1.843,-3.414 -0.367,-0.708 -0.455,-1.261 -0.238,-1.479 0.823,-0.822 21.918,-1.062 23.405,-0.266 m 270.978,-0.045 c 7.496,0.583 7.981,0.95 7.947,6.017 -0.019,2.909 0.392,3.307 2.419,2.341 2.983,-1.423 3.635,0.205 3.526,8.807 -0.102,8.09 -0.004,7.754 -2.481,8.474 -2.755,0.801 -3.865,2.401 -3.865,5.574 0,2.634 -0.56,3.11 -3.666,3.11 -2.325,0 -3.43,0.858 -3.582,2.78 -0.161,2.045 -0.741,2.416 -4.427,2.832 -5.568,0.628 -10.937,0.213 -12.324,-0.954 -0.632,-0.532 -1.261,-0.975 -1.398,-0.984 -0.136,-0.009 -0.968,-0.155 -1.848,-0.325 -1.013,-0.196 -1.987,-0.163 -2.657,0.09 -1.232,0.465 -2.348,-0.283 -3.119,-2.092 -0.295,-0.692 -1.131,-1.4 -2.441,-2.066 -1.225,-0.624 -2.595,-1.751 -3.56,-2.929 l -1.568,-1.914 0.002,-6.167 c 0.002,-6.554 0.34,-8.697 1.466,-9.3 1.046,-0.559 3.425,-0.449 4.355,0.202 1.269,0.889 1.555,0.364 1.583,-2.903 0.032,-3.745 0.137,-4.004 2.188,-5.391 2.035,-1.377 2.684,-1.41 3.648,-0.184 1.304,1.657 2.054,1.075 2.183,-1.695 0.145,-3.093 0.149,-3.096 4.795,-3.342 6.524,-0.345 8.178,-0.343 12.824,0.019 M 42.123,144.36 c 0.508,0.8 0.378,10.765 -0.149,11.438 -0.612,0.782 -13.64,1.36 -14.503,0.643 -0.716,-0.594 -0.779,-10.952 -0.072,-11.9 0.759,-1.018 14.089,-1.183 14.724,-0.181 m 275.365,0.135 c 0.123,0.321 0.224,2.891 0.224,5.711 0,6.485 0.488,6.09 -7.882,6.381 -8.899,0.309 -8.714,0.469 -8.599,-7.447 0.053,-3.673 0.148,-4.246 0.777,-4.705 1.119,-0.818 15.164,-0.763 15.48,0.06 m -3.535,60.293 c -3.089,0.312 -3.76,0.81 -3.465,2.572 0.211,1.252 0.496,3.581 0.681,5.549 0.14,1.497 -1.53,1.824 -9.324,1.823 -3.755,-0.001 -7.097,0.005 -7.428,0.013 -0.894,0.022 -1.383,1.659 -1.59,5.325 -0.133,2.358 -0.36,3.473 -0.807,3.966 -0.795,0.879 -186.424,1.102 -187.141,0.226 -0.207,-0.254 -0.488,-2.285 -0.624,-4.513 -0.327,-5.357 0.261,-4.989 -7.966,-4.989 -9.309,0 -10.033,-0.382 -8.703,-4.601 1.561,-4.952 1.038,-5.364 -6.803,-5.356 -3.333,0.003 -6.246,0.127 -6.475,0.276 -0.785,0.514 -0.842,2.597 -1.068,39.038 -0.266,42.936 -0.886,38.121 4.93,38.315 5.468,0.182 5.11,-0.531 5.399,10.741 0.308,12.006 -0.199,11.112 6.077,10.708 6.308,-0.405 5.94,-0.95 6.821,10.106 0.729,9.143 1.513,10.167 7.206,9.412 2.746,-0.364 3.574,0.893 2.416,3.666 -1.344,3.215 -0.668,3.918 4.038,4.198 4.43,0.265 4.546,0.384 3.711,3.792 -0.83,3.386 0.098,4.709 2.192,3.125 2.426,-1.835 5.175,0.161 4.927,3.578 -0.213,2.948 0.408,3.447 3.566,2.863 5.355,-0.99 9.822,1.043 9.23,4.199 -0.341,1.817 -0.034,1.906 6.59,1.913 6.779,0.006 7.106,0.155 6.672,3.046 -0.607,4.051 -0.155,4.237 10.937,4.496 10.647,0.249 11.052,0.365 11.052,3.16 0,2.527 -1.596,2.403 30.717,2.403 32.79,0 30.371,0.226 30.862,-2.883 0.428,-2.705 -0.094,-2.563 10.561,-2.852 10.598,-0.288 10.514,-0.266 10.522,-2.705 0.011,-3.777 0.167,-3.87 7.584,-4.49 6.247,-0.523 6.971,-0.805 7.297,-2.842 0.441,-2.755 2.086,-3.555 7.375,-3.582 4.093,-0.021 4.499,-0.26 4.92,-2.89 0.326,-2.039 2.151,-3.218 4.981,-3.218 2.529,0 3.473,-0.677 3.031,-2.174 -1.15,-3.892 0.992,-6.291 5.628,-6.307 2.51,-0.008 2.89,-0.505 2.782,-3.642 -0.124,-3.599 0.216,-3.927 3.954,-3.819 4.516,0.131 4.353,0.489 4.202,-9.249 -0.157,-10.085 -0.519,-9.495 5.822,-9.495 4.174,0 4.497,-0.053 5.313,-0.868 l 0.867,-0.868 -0.201,-9.237 -0.2,-9.238 0.884,-0.485 c 0.487,-0.266 2.597,-0.583 4.691,-0.704 4.468,-0.258 4.315,-0.114 4.636,-4.37 0.413,-5.467 0.286,-71.687 -0.138,-72.198 -0.788,-0.95 -6.355,-1.417 -11.141,-0.934 m -48.716,32.511 c 0.574,1.077 0.363,3.907 -0.344,4.595 -0.361,0.352 -2.647,0.576 -8.153,0.799 -8.851,0.359 -8.789,0.334 -9.062,3.626 -0.204,2.461 -0.122,2.412 -5.619,3.331 -2.987,0.5 -5.097,0.596 -9.632,0.438 -6.617,-0.229 -6.228,-0.421 -6.228,3.07 0,3.927 -1.88,4.155 -31.365,3.812 -23.001,-0.268 -21.317,0.037 -21.478,-3.898 -0.139,-3.397 0.309,-3.273 -11.713,-3.227 -10.732,0.042 -10.351,0.158 -10.351,-3.166 0,-3.079 0.045,-3.059 -7.715,-3.276 -7.65,-0.213 -7.4,-0.108 -7.409,-3.114 -0.011,-3.741 -6.404,-3.331 52.854,-3.391 65.655,-0.067 74.324,-0.121 74.672,-0.469 0.438,-0.438 1.021,-0.109 1.543,0.87 m -21.934,40.857 c 12.564,0.457 12.417,0.423 12.417,2.84 0,2.209 0.241,2.342 6.383,3.523 l 2.14,0.412 -0.24,1.601 c -0.318,2.117 0.568,2.585 5.554,2.937 6.249,0.44 9.151,1.359 8.779,2.78 -0.114,0.436 0.271,0.991 1.154,1.664 0.76,0.58 1.451,1.502 1.623,2.165 0.505,1.953 3.608,3.546 6.916,3.551 3.377,0.005 4.135,3.229 3.912,16.639 l -0.059,3.538 -2.675,2.776 c -1.472,1.527 -3.3,3.236 -4.062,3.797 -1.055,0.775 -1.442,1.361 -1.615,2.442 -0.35,2.193 -0.911,2.387 -2.481,0.863 -1.854,-1.801 -3.12,-0.428 -3.759,4.08 -0.423,2.982 -1.42,3.461 -4.227,2.029 -2.548,-1.3 -5.166,-0.776 -5.166,1.034 0,2.695 -4.239,3.899 -13.443,3.817 -6.77,-0.06 -6.946,0.031 -6.79,3.506 0.057,1.266 -0.027,2.432 -0.187,2.592 -0.474,0.474 -5.519,0.805 -12.691,0.833 l -6.728,0.026 -0.21,1.015 c -0.967,4.674 1.567,4.292 -27.825,4.2 -27.264,-0.085 -25.853,0.05 -25.853,-2.466 0,-2.702 0.007,-2.699 -9.609,-2.719 -9.876,-0.019 -10.135,-0.083 -9.787,-2.401 0.129,-0.862 0.061,-2.024 -0.151,-2.582 l -0.385,-1.014 -7.546,0.109 c -8.555,0.124 -8.248,0.218 -7.595,-2.332 0.887,-3.459 0.134,-3.631 -11.572,-2.651 l -2.918,0.245 0.233,-2.502 c 0.4,-4.278 -1.292,-5.66 -6.354,-5.188 -3.195,0.297 -3.651,0 -3.003,-1.961 0.855,-2.591 -0.547,-4.268 -5.253,-6.285 -2.215,-0.95 -2.296,-1.272 -2.296,-9.076 0,-8.189 0.235,-8.756 3.979,-9.575 0.614,-0.134 1.161,-0.575 1.359,-1.093 0.181,-0.478 0.849,-1.239 1.483,-1.69 0.634,-0.452 1.567,-1.476 2.072,-2.277 0.72,-1.14 1.079,-1.405 1.655,-1.222 0.823,0.261 4.799,-0.854 5.221,-1.464 0.149,-0.215 0.273,-1.243 0.277,-2.284 0.007,-2.603 1.129,-3.073 8.627,-3.622 3.259,-0.238 4.662,-1.561 4.662,-4.394 0,-0.998 0.767,-1.333 3.069,-1.341 2.174,-0.008 2.835,-0.527 2.835,-2.224 0,-2.595 -0.725,-2.505 21.034,-2.589 34.789,-0.134 47.993,-0.258 48.189,-0.454 0.296,-0.296 18.218,-0.069 30.907,0.392"
       stroke="none"
       fill="#63172b"
       fill-rule="evenodd" />
    <path
       id="path1"
       d="M 1.107,0.554 C 1.107,0.858 0.858,1.107 0.554,1.107 0.063,1.107 0,12.175 0,98.507 v 97.401 l 1.199,0.211 c 1.142,0.202 16.211,0.379 18.543,0.218 4.102,-0.282 6.826,1.077 6.826,3.407 0,1.355 2.026,2.877 4.227,3.176 1.164,0.158 2.226,0.45 2.358,0.65 0.133,0.199 0.876,1.128 1.651,2.064 0.776,0.935 1.535,2.168 1.687,2.738 0.23,0.862 0.522,1.071 1.727,1.235 2.585,0.352 3.479,1.739 3.479,5.396 0,1.162 0.182,3.949 0.404,6.193 0.645,6.527 0.358,7.476 -2.745,9.062 -2.672,1.366 -2.717,1.424 -5.076,6.529 -0.903,1.953 -3.554,3.434 -6.149,3.434 -0.823,0 -2.041,1.37 -1.704,1.916 0.109,0.175 -0.15,1.036 -0.574,1.912 -0.844,1.744 -0.5,1.641 -6.111,1.827 -1.821,0.061 -14.72,-0.43 -17.62,-0.67 L 0,245.03 V 322.515 400 h 42.804 c 24.785,0 42.805,-0.138 42.805,-0.329 0,-0.18 0.54,-0.404 1.199,-0.497 0.66,-0.093 1.468,-0.286 1.797,-0.43 0.42,-0.184 0.656,-0.037 0.795,0.497 L 89.599,400 H 244.799 400 v -77.122 -77.122 l -2.675,-0.031 c -1.472,-0.018 -6.315,-0.059 -10.762,-0.093 -6.159,-0.046 -8.125,-0.172 -8.244,-0.528 -0.086,-0.257 -0.349,-0.677 -0.584,-0.932 -0.802,-0.869 -2.089,-2.812 -2.089,-3.152 0,-0.186 -0.811,-0.688 -1.803,-1.114 -0.991,-0.427 -1.899,-1.028 -2.018,-1.337 -0.118,-0.309 -0.48,-0.562 -0.805,-0.562 -1.255,0 -3.202,-1.914 -2.995,-2.945 0.232,-1.161 -0.05,-1.67 -1.106,-2 -0.437,-0.136 -0.891,-0.635 -1.01,-1.109 -0.149,-0.593 -0.572,-0.933 -1.353,-1.09 -0.624,-0.125 -1.646,-0.738 -2.271,-1.362 l -1.136,-1.136 0.308,-3.205 c 0.362,-3.766 0.357,-6.173 -0.019,-8.811 -0.543,-3.808 0.54,-6.67 2.587,-6.84 1.173,-0.097 4.518,-3.231 5.036,-4.719 0.251,-0.719 0.775,-1.131 1.897,-1.492 2.01,-0.646 5.426,-3.194 5.426,-4.048 0,-0.363 0.539,-1.091 1.199,-1.618 0.66,-0.527 1.562,-1.315 2.005,-1.752 0.797,-0.785 0.839,-0.787 3.69,-0.197 1.66,0.344 5.823,0.698 9.803,0.834 L 400,196.754 V 98.377 0 H 200.554 C 23.514,0 1.107,0.062 1.107,0.554 m 318.45,77.975 c 5.884,0.276 33.372,0.215 37.408,-0.084 1.866,-0.138 2.829,-0.037 3.641,0.383 0.607,0.314 1.442,0.483 1.856,0.375 0.714,-0.187 1.149,0.061 3.837,2.189 0.861,0.682 0.963,1.009 0.934,3.019 l -0.032,2.253 2.285,0.816 c 1.257,0.449 3.131,0.86 4.165,0.913 1.428,0.074 2.13,0.328 2.914,1.055 0.569,0.527 1.238,0.958 1.488,0.958 0.25,0 0.661,0.249 0.914,0.553 0.293,0.354 0.316,0.554 0.064,0.554 -0.255,0 -0.205,0.456 0.139,1.28 0.667,1.596 0.665,1.672 -0.04,1.672 -0.317,0 -0.478,0.159 -0.358,0.353 0.12,0.194 0.472,0.255 0.782,0.136 0.365,-0.14 0.632,0.046 0.758,0.526 0.217,0.829 3.178,2.204 3.388,1.574 0.229,-0.685 0.691,-0.39 1.723,1.1 1.098,1.583 1.73,4.029 1.26,4.869 -0.502,0.897 2.176,2.512 4.165,2.512 0.928,0 2.879,2.904 2.879,4.286 0,0.653 0.208,1.257 0.461,1.343 0.361,0.121 0.345,0.468 -0.078,1.599 -0.442,1.186 -0.552,4.81 -0.613,20.33 -0.082,20.856 -0.018,20.284 -2.45,21.858 -0.96,0.621 -1.379,1.161 -1.379,1.775 0,0.494 -0.162,0.782 -0.369,0.654 -0.203,-0.125 -0.37,-0.011 -0.371,0.255 -0.002,0.266 -0.251,0.96 -0.555,1.542 -0.304,0.583 -0.662,2.486 -0.796,4.229 -0.263,3.416 -1.065,4.86 -2.701,4.86 -2.277,0 -4.05,1.387 -4.059,3.175 -0.011,2.314 -4.614,5.672 -7.784,5.679 -1.108,0.002 -1.71,1.006 -1.771,2.954 -0.137,4.349 -0.785,5.162 -4.345,5.448 -3.668,0.294 -4.884,1.121 -4.653,3.165 0.148,1.311 0.019,1.769 -0.748,2.661 l -0.926,1.077 -10.83,0.238 c -15.411,0.339 -30.562,0.072 -31.292,-0.551 -0.314,-0.268 -0.876,-0.596 -1.249,-0.728 -0.373,-0.133 -0.862,-0.729 -1.087,-1.324 -0.225,-0.595 -0.708,-1.16 -1.075,-1.256 -0.378,-0.099 -0.666,-0.512 -0.666,-0.958 0,-0.431 -0.29,-0.875 -0.646,-0.986 -0.355,-0.111 -1.086,-0.438 -1.625,-0.727 -0.539,-0.288 -1.349,-0.524 -1.801,-0.524 -2.228,0 -4.205,-2.486 -3.225,-4.055 0.37,-0.592 0.371,-0.891 0.006,-1.475 -0.252,-0.403 -0.458,-1.047 -0.458,-1.431 0,-1.251 -0.978,-1.711 -2.704,-1.271 -2.405,0.613 -4.279,0.225 -4.996,-1.036 -0.331,-0.583 -0.814,-1.061 -1.073,-1.062 -0.749,-0.004 -1.255,-1.856 -1.126,-4.123 0.137,-2.396 0.007,-2.613 -1.634,-2.739 -0.658,-0.051 -1.986,-0.285 -2.95,-0.521 l -1.753,-0.428 v -1.713 c 0,-1.194 -0.38,-2.498 -1.256,-4.306 -0.691,-1.426 -1.352,-2.89 -1.47,-3.252 -0.117,-0.363 -0.7,-0.939 -1.294,-1.28 -1.142,-0.655 -1.904,-2.39 -1.903,-4.334 0,-0.609 -0.077,-3.017 -0.172,-5.351 -0.634,-15.585 -0.144,-35.156 0.991,-39.584 0.561,-2.192 1.59,-3.033 3.259,-2.666 0.625,0.137 1.338,0.091 1.583,-0.101 0.246,-0.193 0.878,-0.454 1.405,-0.58 0.93,-0.221 0.966,-0.337 1.195,-3.833 0.254,-3.886 0.509,-4.363 2.559,-4.782 1.19,-0.244 1.618,-0.757 1.079,-1.296 -0.26,-0.261 0.139,-1.017 1.27,-2.405 0.907,-1.114 2.063,-2.68 2.568,-3.48 1.128,-1.787 1.513,-1.947 3.438,-1.429 1.224,0.33 1.67,0.307 2.277,-0.119 0.415,-0.291 1.041,-0.454 1.391,-0.362 1.32,0.345 2.056,-1.139 1.518,-3.059 -0.501,-1.789 -0.031,-2.724 1.37,-2.724 0.263,0 0.907,-0.681 1.432,-1.512 0.782,-1.239 1.1,-1.468 1.758,-1.267 0.441,0.134 3.21,0.357 6.153,0.496 M 49.143,78.581 c 1.486,0.194 10.384,0.414 19.773,0.489 l 17.072,0.137 1.01,0.933 c 0.555,0.513 1.3,1.035 1.655,1.16 0.448,0.157 0.646,0.62 0.646,1.512 0,1.365 0.657,3.166 1.155,3.166 0.164,0 0.202,0.249 0.085,0.553 -0.164,0.429 0.086,0.554 1.104,0.554 3.219,0 6.895,0.812 7.308,1.615 0.222,0.431 0.71,1.122 1.086,1.535 0.375,0.414 0.905,1.731 1.176,2.927 0.544,2.394 0.659,2.495 3.574,3.164 2.561,0.588 5.237,3.212 4.922,4.828 -0.277,1.419 0.393,2.365 2.479,3.5 1.019,0.555 1.79,1.188 1.714,1.406 -0.077,0.219 0.372,0.647 0.999,0.952 1.53,0.744 1.592,1.26 1.749,14.575 0.364,30.853 0.417,30.393 -4.011,35.449 -1.045,1.193 -1.423,3.376 -1.109,6.393 0.426,4.082 -0.205,5.007 -3.45,5.06 -2.99,0.049 -4.006,0.549 -4.067,2.004 -0.025,0.601 -0.088,1.26 -0.138,1.463 -0.051,0.203 -0.113,0.617 -0.139,0.921 -0.107,1.282 -2.637,3.463 -4.307,3.713 -0.895,0.134 -2.253,0.462 -3.019,0.729 -1.476,0.514 -1.534,0.683 -1.111,3.236 0.248,1.495 0.239,1.51 -2.23,3.45 -0.842,0.662 -1.708,0.969 -2.836,1.007 -1.796,0.06 -3.517,1.296 -3.517,2.526 0,0.875 -1.414,2.976 -2.665,3.96 -1.52,1.196 -6.727,1.545 -22.427,1.504 -19.071,-0.049 -22.575,-0.498 -23.11,-2.961 -0.55,-2.535 -1.146,-3.509 -2.216,-3.618 -3.144,-0.321 -6.778,-3.223 -6.778,-5.413 0,-0.71 -1.801,-2.781 -2.419,-2.781 -0.847,0 -3.26,-1.245 -3.934,-2.03 -0.367,-0.428 -0.638,-0.544 -0.645,-0.276 -0.03,1.113 -1.121,0.41 -1.146,-0.738 -0.021,-0.98 -0.08,-1.064 -0.32,-0.462 -0.19,0.478 -0.279,-0.042 -0.251,-1.476 0.043,-2.183 0.03,-2.214 -0.971,-2.199 -1.151,0.016 -1.267,-0.264 -0.446,-1.084 0.539,-0.54 -1.141,-1.698 -2.464,-1.698 -0.911,0 -1.807,-2.415 -1.584,-4.267 0.16,-1.32 0.05,-2.289 -0.373,-3.301 -0.329,-0.789 -0.508,-1.671 -0.397,-1.961 0.317,-0.825 -0.521,-1.562 -1.497,-1.317 -0.706,0.177 -0.908,0.042 -1.104,-0.742 -0.18,-0.716 -0.477,-0.958 -1.175,-0.958 -1.015,0 -1.908,-0.904 -1.926,-1.951 -0.007,-0.362 -0.261,-1.039 -0.565,-1.503 -0.47,-0.717 -0.495,-1.435 -0.163,-4.728 0.306,-3.043 0.263,-26.785 -0.052,-28.903 -0.03,-0.203 0.048,-2.03 0.175,-4.059 0.427,-6.874 1.439,-8.732 4.984,-9.152 2.635,-0.312 2.652,-0.334 2.397,-3.14 -0.36,-3.977 1.741,-6.335 5.353,-6.009 1.081,0.098 1.588,-0.609 1.097,-1.527 -0.397,-0.742 -0.11,-2.128 0.44,-2.128 0.189,0 0.344,-0.418 0.344,-0.928 0,-3.213 2.514,-5.362 4.386,-3.749 1.462,1.26 3.363,0.948 3.363,-0.552 0,-0.391 0.427,-1.105 0.948,-1.588 0.855,-0.793 0.911,-1.008 0.575,-2.224 -1.12,-4.056 6.663,-6.345 16.993,-4.998 m 274.231,124.16 c 3.769,0.753 6.093,3.721 4.828,6.167 -0.528,1.021 -0.528,1.18 0,1.763 0.741,0.819 0.739,1.653 -0.005,2.271 -0.384,0.318 -0.517,0.827 -0.387,1.477 0.109,0.546 0.087,1.103 -0.048,1.238 -0.136,0.136 -0.253,14.81 -0.261,32.609 -0.018,37.794 0.207,35.528 -3.566,36.04 -3.092,0.419 -3.365,0.489 -3.64,0.934 -0.35,0.566 -1.601,0.726 -1.912,0.244 -0.138,-0.215 -0.368,0.099 -0.512,0.698 -0.143,0.598 -0.427,1.298 -0.629,1.555 -0.234,0.296 -0.28,2.463 -0.126,5.904 0.133,2.99 0.252,6.211 0.264,7.158 0.034,2.772 -1.441,4.367 -4.038,4.367 -0.55,0 -1.358,0.25 -1.795,0.557 -0.437,0.306 -1.788,0.66 -3.002,0.787 -2.594,0.271 -2.525,0.116 -2.828,6.361 -0.518,10.694 -0.82,11.483 -4.403,11.483 -1.009,0 -1.276,0.169 -1.466,0.923 -0.24,0.959 -1.681,1.349 -1.706,0.461 -0.007,-0.254 -0.246,-0.046 -0.531,0.461 -0.285,0.508 -0.429,1.291 -0.319,1.742 0.445,1.829 -1.804,4.162 -4.012,4.162 -1.241,0 -1.807,0.437 -3.074,2.371 -0.341,0.519 -0.768,0.852 -0.95,0.739 -0.377,-0.232 -0.539,0.172 -0.873,2.179 -0.21,1.259 -0.427,1.495 -1.966,2.139 -0.952,0.398 -2.019,0.883 -2.371,1.076 -0.353,0.194 -0.892,0.352 -1.2,0.352 -0.307,0 -0.558,0.256 -0.558,0.568 0,0.831 -3.269,3.868 -4.409,4.096 -0.538,0.108 -1.136,0.556 -1.329,0.995 -0.303,0.689 -0.654,0.801 -2.565,0.81 -2.342,0.012 -2.762,0.169 -4.466,1.668 -2.042,1.796 -2.505,2.5 -2.024,3.078 0.623,0.751 -0.015,1.038 -2.029,0.914 -1.081,-0.066 -1.782,0.069 -1.975,0.381 -0.194,0.314 -0.672,0.405 -1.36,0.258 -0.584,-0.125 -1.808,-0.078 -2.721,0.104 -0.914,0.183 -1.453,0.35 -1.2,0.372 0.254,0.022 0.462,0.311 0.462,0.641 0,0.495 -0.262,0.559 -1.483,0.364 -2.232,-0.357 -3.419,0.045 -3.219,1.09 0.12,0.632 -0.219,1.213 -1.321,2.258 l -1.483,1.407 -5.749,0.286 c -3.162,0.157 -6.745,0.325 -7.963,0.373 -2.057,0.08 -4.613,1.255 -4.613,2.119 0,0.521 -3.045,3.311 -3.626,3.322 -0.339,0.007 -0.94,0.256 -1.333,0.554 -0.891,0.674 -3.197,0.734 -3.067,0.08 0.074,-0.365 -5.406,-0.473 -26.291,-0.519 -29.545,-0.066 -28.581,-0.022 -30.338,-1.363 -0.705,-0.537 -1.464,-0.977 -1.687,-0.977 -0.321,0 -2.677,-1.205 -3.36,-1.719 -0.079,-0.06 0.053,-0.347 0.295,-0.638 0.73,-0.88 -0.009,-1.012 -6.711,-1.202 -7.27,-0.206 -9.251,-0.604 -10.294,-2.069 -0.398,-0.558 -0.934,-1.014 -1.192,-1.014 -0.54,0 -1.326,-1.541 -1.326,-2.601 0,-0.467 -0.251,-0.72 -0.716,-0.72 -0.394,0 -0.814,-0.159 -0.934,-0.353 -0.12,-0.194 -0.436,-0.27 -0.702,-0.168 -2.155,0.827 -10.932,-1.918 -10.932,-3.418 0,-0.269 -0.166,-0.49 -0.369,-0.49 -0.203,0 -0.369,-0.175 -0.369,-0.39 0,-0.215 0.208,-0.266 0.462,-0.114 0.313,0.188 0.298,0.077 -0.046,-0.347 -0.306,-0.378 -1.035,-0.625 -1.845,-0.627 -0.736,-0.001 -1.814,-0.25 -2.395,-0.553 -0.581,-0.303 -1.579,-0.552 -2.217,-0.552 -2.985,0 -4.627,-1.13 -4.648,-3.198 -0.019,-1.859 -0.326,-2.377 -1.115,-1.884 -0.523,0.326 -0.876,0.282 -1.615,-0.202 -0.52,-0.341 -1.207,-0.62 -1.527,-0.62 -1.854,0 -3.504,-1.459 -3.504,-3.099 0,-2.815 -0.914,-4.409 -2.39,-4.169 -0.918,0.149 -1.398,0.023 -1.86,-0.488 -0.343,-0.379 -1.146,-0.801 -1.784,-0.937 -1.72,-0.368 -3.854,-2.923 -3.41,-4.081 0.335,-0.871 -0.442,-1.617 -1.683,-1.617 -0.598,0 -1.164,-0.237 -1.279,-0.535 -0.113,-0.295 -0.813,-0.731 -1.556,-0.969 -1.986,-0.637 -2.913,-1.94 -2.742,-3.854 0.095,-1.067 -0.041,-1.74 -0.432,-2.131 -0.733,-0.733 -0.884,-1.606 -0.918,-5.293 -0.027,-2.983 -0.918,-5.265 -1.737,-4.449 -0.164,0.164 -0.054,0.452 0.245,0.641 0.298,0.188 0.376,0.343 0.173,0.343 -0.768,0 -1.391,-0.672 -1.166,-1.258 0.194,-0.507 0.035,-1.004 -0.763,-2.383 -0.077,-0.132 -2.282,-0.555 -5.004,-0.96 -2.123,-0.316 -4.943,-3.604 -4.032,-4.701 0.296,-0.357 0.361,-1.752 0.214,-4.549 -0.117,-2.219 -0.204,-5.557 -0.193,-7.418 0.022,-3.519 -0.539,-5.025 -1.339,-3.596 -0.448,0.8 -2.433,0.369 -5.933,-1.288 -2.833,-1.342 -2.664,1.284 -2.669,-41.447 l -0.005,-37.169 1.3,-1.3 1.3,-1.3 h 6.663 6.662 l 1.653,1.523 1.652,1.523 v 3.192 3.192 l 4.645,0.103 c 9.257,0.205 9.506,0.312 11.668,4.986 0.642,1.387 0.64,1.423 -0.079,1.611 -0.405,0.106 -0.723,0.463 -0.707,0.795 0.019,0.383 0.097,0.434 0.215,0.141 0.327,-0.809 1.246,-0.496 1.895,0.644 0.676,1.189 0.849,1.245 3.447,1.126 0.942,-0.043 1.824,0.101 1.96,0.321 0.135,0.22 0.786,0.4 1.446,0.4 0.659,0 1.521,0.244 1.915,0.542 0.886,0.67 2.079,0.716 2.691,0.104 0.423,-0.423 40.868,-0.59 156.308,-0.648 4.24,-0.002 7.452,-0.152 7.577,-0.354 0.131,-0.212 0.792,-0.149 1.68,0.16 1.256,0.438 1.581,0.436 2.282,-0.016 0.45,-0.29 1.189,-0.583 1.642,-0.652 0.453,-0.07 0.937,-0.36 1.077,-0.646 0.736,-1.513 1.038,-2.538 1.233,-4.185 0.337,-2.838 2.677,-4.817 4.704,-3.978 1.214,0.502 5.59,-0.078 6.901,-0.915 0.635,-0.405 0.949,-0.443 1.137,-0.139 0.414,0.669 2.756,0.917 3.2,0.339 0.21,-0.274 0.585,-1.645 0.833,-3.049 0.629,-3.556 1.253,-4.855 2.688,-5.606 2.159,-1.13 8.701,-1.505 12.61,-0.725"
       stroke="none"
       fill="#f9ea06"
       fill-rule="evenodd" />
    <path
       id="path2"
       d="M 0,0.554 C 0,0.858 0.249,1.107 0.554,1.107 0.858,1.107 1.107,0.858 1.107,0.554 1.107,0.249 0.858,0 0.554,0 0.249,0 0,0.249 0,0.554 m 49.077,91.701 c -3.652,0.408 -3.69,0.44 -3.69,3.146 0,3.138 -0.629,3.847 -2.459,2.767 -1.723,-1.017 -1.997,-0.969 -3.847,0.673 -1.71,1.517 -1.782,1.827 -1.416,6.073 0.186,2.166 -2.264,2.823 -4.153,1.114 -1.786,-1.617 -2.73,0.499 -3.042,6.819 -0.462,9.349 -0.22,9.782 8.024,14.352 0.443,0.246 1.168,0.9 1.612,1.454 0.726,0.905 0.905,0.962 1.77,0.568 1.524,-0.694 2.836,-0.508 4.533,0.642 2.369,1.606 6.423,1.859 12.586,0.787 5.329,-0.928 5.325,-0.925 4.851,-2.575 -0.615,-2.145 1.514,-4.106 3.598,-3.314 1.057,0.403 2.663,0.435 2.677,0.054 0.203,-5.267 1.233,-8.283 2.909,-8.52 1.813,-0.256 2.329,-1.453 1.14,-2.642 -1.225,-1.225 -0.828,-2.73 0.728,-2.758 1.63,-0.029 1.23,-4.426 -0.6,-6.601 -0.876,-1.041 -0.933,-1.317 -0.714,-3.458 0.286,-2.784 -0.187,-3.202 -2.304,-2.04 -1.06,0.581 -1.574,0.666 -2.369,0.389 -1.086,-0.379 -1.162,-0.58 -1.636,-4.351 l -0.301,-2.399 -3.136,-0.24 c -4.074,-0.312 -11.713,-0.281 -14.761,0.06 m 273.432,0.826 c -0.828,0.448 -0.91,0.693 -0.806,2.396 0.207,3.369 -1.59,4.645 -3.253,2.309 -0.962,-1.351 -1.262,-1.357 -3.136,-0.064 l -1.476,1.019 -0.185,3.635 c -0.215,4.235 -0.663,4.905 -2.539,3.797 -3.807,-2.249 -4.841,-0.652 -4.841,7.481 v 6.615 l 1.071,1.571 c 0.762,1.118 1.802,1.951 3.598,2.885 2.082,1.082 2.547,1.491 2.644,2.324 0.156,1.339 1.585,2.304 2.604,1.758 1.412,-0.756 5.5,0.121 6.81,1.461 l 1.132,1.158 5.941,-0.122 c 6.606,-0.137 7.934,-0.533 7.934,-2.364 0,-2.501 1.3,-3.465 4.683,-3.474 2.231,-0.006 2.255,-0.032 2.733,-3.003 0.614,-3.811 2.112,-5.667 4.778,-5.921 2.008,-0.191 2.123,-4.648 0.143,-5.55 -1.141,-0.52 -1.029,-1.475 0.208,-1.766 1.108,-0.262 1.527,-2.04 1.218,-5.167 -0.35,-3.543 -0.952,-3.979 -3.298,-2.387 -1.984,1.346 -2.493,0.718 -2.635,-3.251 -0.151,-4.21 -0.262,-4.551 -1.647,-5.072 -1.851,-0.697 -20.464,-0.927 -21.681,-0.268 M 31.812,144.549 c -3.67,0.122 -3.808,0.157 -4.151,1.06 -0.457,1.202 -0.462,8.305 -0.006,9.503 l 0.348,0.917 6.386,-0.202 c 7.926,-0.25 7.351,0.239 7.226,-6.157 l -0.102,-5.205 -2.952,-0.021 c -1.624,-0.012 -4.661,0.036 -6.749,0.105 m 271.637,0.004 c -1.638,0.285 -2.317,8.865 -0.842,10.642 0.523,0.63 13.623,0.658 14.245,0.031 0.377,-0.38 0.395,-10.058 0.019,-10.434 -0.279,-0.278 -11.996,-0.486 -13.422,-0.239 m -57.778,92.925 c -0.142,0.142 -22.805,0.331 -50.363,0.42 -27.558,0.089 -50.437,0.177 -50.843,0.196 -0.406,0.02 -2.104,-0.071 -3.774,-0.201 -3.417,-0.266 -3.791,-0.028 -3.791,2.415 0,2.05 0.263,2.127 7.261,2.127 7.354,0 7.121,-0.112 7.832,3.804 0.213,1.179 0.485,2.3 0.603,2.491 0.126,0.203 4.308,0.347 10.086,0.347 11.683,0 11.216,-0.144 11.488,3.559 0.272,3.706 -1.621,3.443 24.723,3.431 27.85,-0.013 26.212,0.207 26.603,-3.572 0.324,-3.132 1.026,-3.839 3.362,-3.387 7.32,1.415 18.005,-0.492 18.005,-3.214 0,-2.861 1.692,-3.828 6.698,-3.828 7.989,0 11.12,-0.82 10.941,-2.865 l -0.111,-1.269 -7.933,-0.102 c -4.364,-0.057 -8.518,-0.217 -9.231,-0.356 -0.714,-0.14 -1.414,-0.138 -1.556,0.004"
       stroke="none"
       fill="#eae5eb"
       fill-rule="evenodd" />
    <path
       id="path3"
       d="m 34.85,81.07 c -0.543,0.543 -0.594,1.118 -0.379,4.247 l 0.249,3.618 -1.022,0.389 c -0.562,0.214 -2.783,0.351 -4.934,0.305 -3.903,-0.084 -4.779,0.076 -4.779,0.872 0,0.304 0.124,0.298 0.443,-0.021 0.296,-0.296 1.934,-0.443 4.941,-0.443 5.806,0 6.439,-0.363 5.761,-3.302 -0.53,-2.294 -0.564,-4.424 -0.083,-5.185 0.304,-0.48 3.651,-0.579 25.179,-0.745 L 85.055,80.615 60.266,80.529 C 37.355,80.449 35.43,80.49 34.85,81.07 m 276.931,0.138 c -0.694,0.694 -0.765,1.091 -0.611,3.423 0.29,4.379 -1.803,5.708 -7.263,4.611 -3.143,-0.631 -4.156,1.137 -3.646,6.365 0.247,2.532 -0.112,2.76 -3.295,2.103 -2.341,-0.484 -3.279,-0.037 -3.216,1.53 0.015,0.373 0.137,0.295 0.345,-0.222 0.419,-1.039 1.372,-1.316 2.959,-0.861 3.411,0.978 3.67,0.67 3.792,-4.509 0.093,-3.929 0.465,-4.484 2.66,-3.972 1.588,0.37 6.813,0.087 7.624,-0.414 0.348,-0.215 0.515,-1.356 0.567,-3.879 0.041,-2.007 0.251,-3.752 0.48,-3.98 0.287,-0.288 7.78,-0.407 25.694,-0.407 29.354,0 26.366,-0.508 26.058,4.434 -0.259,4.147 -0.345,4.075 5.285,4.388 6.894,0.383 8.238,1.445 7.061,5.579 -0.858,3.019 -0.463,3.652 2.082,3.334 2.329,-0.29 5.74,0.378 6.051,1.186 0.123,0.321 -0.056,1.675 -0.398,3.009 -1.16,4.525 -0.944,4.823 3.491,4.823 4.631,0 4.196,-2.299 4.196,22.183 0,23.808 0.114,22.799 -2.65,23.453 -2.799,0.662 -3.428,2.756 -2.695,8.977 0.224,1.896 0.251,1.587 0.13,-1.476 -0.188,-4.737 0.363,-6.168 2.672,-6.936 3.141,-1.046 2.904,0.836 2.975,-23.635 0.035,-11.94 -0.083,-21.931 -0.261,-22.219 -0.228,-0.369 -1.232,-0.557 -3.384,-0.634 -5.193,-0.187 -5.279,-0.264 -4.141,-3.743 1.371,-4.191 -0.242,-5.868 -5.223,-5.427 -2.44,0.216 -2.903,-0.084 -2.573,-1.664 1.302,-6.24 0.048,-7.228 -9.278,-7.309 -2.869,-0.025 -3.019,-0.263 -2.782,-4.415 0.269,-4.723 3.078,-4.26 -26.526,-4.379 l -25.395,-0.102 -0.785,0.785 M 86.07,81.21 c 0.535,0.312 0.646,0.915 0.646,3.519 0,4.548 -0.155,4.412 5.398,4.721 6.55,0.364 6.869,0.64 6.744,5.832 -0.085,3.558 -0.23,3.426 3.743,3.426 4.43,0 4.513,0.094 3.958,4.49 -0.551,4.365 -0.528,4.393 3.842,4.642 4.85,0.277 4.414,-2.025 4.285,22.62 -0.122,23.252 -0.063,22.693 -2.45,23.217 -2.582,0.567 -3.324,2.993 -2.603,8.507 0.568,4.34 0.549,4.362 -3.447,4.045 -3.2,-0.255 -4.72,0.63 -4.702,2.736 0.007,0.831 0.105,0.749 0.72,-0.607 0.785,-1.729 0.718,-1.707 4.867,-1.581 3.475,0.105 3.928,-0.357 3.287,-3.35 -1.127,-5.253 -0.465,-8.036 2.218,-9.324 2.673,-1.282 2.624,-0.818 2.58,-24.292 -0.022,-11.306 -0.133,-20.801 -0.247,-21.099 -0.324,-0.844 -2.221,-1.332 -5.178,-1.332 -3.294,0 -3.427,-0.241 -2.529,-4.585 0.824,-3.991 -0.56,-5.278 -4.876,-4.535 -2.971,0.512 -3.064,0.415 -3.064,-3.206 0,-5.632 -0.534,-6.021 -8.368,-6.098 -3.552,-0.035 -3.809,-0.32 -3.809,-4.222 0,-2.923 -0.331,-3.938 -1.273,-3.911 -0.213,0.006 -0.097,0.181 0.258,0.387 M 23.722,93.173 c 0.003,1.015 0.074,1.387 0.159,0.826 0.085,-0.561 0.083,-1.392 -0.005,-1.845 -0.088,-0.454 -0.157,0.005 -0.154,1.019 m 22.219,-1.389 c -1.938,0.193 -2.221,0.537 -1.488,1.81 0.467,0.811 0.571,0.872 0.447,0.266 -0.264,-1.299 0.19,-1.565 3.268,-1.916 2.147,-0.244 2.442,-0.331 1.094,-0.321 -1.015,0.008 -2.509,0.08 -3.321,0.161 m 18.372,0.067 c 3.369,0.253 3.57,0.447 3.578,3.468 0.006,2.176 0.456,3.574 1.152,3.574 0.21,0 0.121,-0.261 -0.197,-0.58 -0.423,-0.422 -0.58,-1.32 -0.58,-3.308 0,-3.317 -0.243,-3.519 -4.127,-3.431 l -2.7,0.061 2.874,0.216 m 261.517,0.006 c -4.082,0.221 -4.797,0.431 -4.797,1.409 0,0.503 0.086,0.485 0.525,-0.114 0.498,-0.68 1.044,-0.716 10.793,-0.699 13.813,0.023 13.659,-0.04 13.738,5.539 0.051,3.63 0.531,4.227 2.493,3.098 2.737,-1.575 3.594,-0.235 3.309,5.176 -0.248,4.727 -0.248,4.373 -0.004,6.571 0.329,2.971 0.03,3.671 -1.776,4.157 -1.567,0.422 -3.986,2.455 -3.986,3.35 0,0.27 0.419,-0.125 0.931,-0.878 0.732,-1.078 1.356,-1.493 2.934,-1.951 2.477,-0.72 2.379,-0.384 2.481,-8.474 0.109,-8.602 -0.543,-10.23 -3.526,-8.807 -2.027,0.966 -2.438,0.568 -2.419,-2.341 0.034,-5.067 -0.451,-5.434 -7.947,-6.017 -4.646,-0.362 -6.347,-0.364 -12.749,-0.019 m -301.819,4.781 -0.026,1.62 -1.937,-0.276 c -3.54,-0.503 -3.65,-0.481 -4.418,0.882 -0.587,1.041 -0.685,1.796 -0.562,4.309 0.196,4.002 0.059,4.207 -2.809,4.207 -4.419,0 -4.246,-1.017 -4.274,25.158 -0.025,23.215 -0.225,21.706 2.886,21.706 3.073,0 3.654,1.477 3.714,9.444 0.029,3.813 0.614,4.238 4.508,3.272 1.514,-0.376 2.291,1.117 2.545,4.89 0.255,3.784 0.425,3.961 3.909,4.059 3.625,0.103 3.818,0.29 3.818,3.681 0,4.25 1.052,5.222 5.153,4.758 3.038,-0.344 3.466,0.306 3.685,5.587 0.064,1.554 1.741,1.735 17.462,1.881 24.6,0.23 26.837,-0.226 26.837,-5.471 0,-2.049 -0.025,-2.023 2.636,-2.739 1.172,-0.315 1.601,-0.541 1.054,-0.554 -3.289,-0.079 -4.428,1.104 -4.428,4.597 0,3.188 -2.272,3.617 -19.373,3.654 -22.762,0.05 -23.651,-0.094 -23.864,-3.868 -0.193,-3.404 -0.967,-4.221 -3.592,-3.789 -4.36,0.717 -5.201,0.018 -5.201,-4.325 0,-3.813 -0.3,-4.124 -3.668,-3.811 -3.523,0.327 -4.081,-0.247 -4.081,-4.204 0,-4.058 -1.14,-5.353 -3.993,-4.535 -2.622,0.752 -2.874,0.286 -3.151,-5.806 -0.298,-6.552 -0.535,-7.09 -3.126,-7.09 -3.252,0 -3.029,1.303 -3.053,-17.899 -0.039,-31.192 -0.441,-28.222 3.821,-28.233 3.332,-0.008 3.388,-0.077 3.099,-3.839 -0.397,-5.162 0.341,-6.342 3.457,-5.523 3.149,0.827 4.38,-0.147 3.315,-2.625 -0.243,-0.566 -0.323,-0.362 -0.343,0.882 m 296.997,-0.147 c -0.21,1.454 -1.256,1.642 -2.231,0.403 -0.907,-1.153 -1.8,-1.209 -2.961,-0.185 l -0.871,0.767 0.912,-0.583 c 1.291,-0.825 2.114,-0.725 2.812,0.339 1.038,1.585 2.962,0.861 2.644,-0.994 -0.126,-0.74 -0.166,-0.707 -0.305,0.253 M 39.631,97.354 c -3.547,2.572 -4.204,4.13 -2.775,6.586 0.492,0.846 0.507,0.624 0.063,-0.924 -0.75,-2.616 2.95,-6.57 5.273,-5.636 2.069,0.832 2.348,0.854 2.6,0.199 0.203,-0.532 0.152,-0.56 -0.312,-0.174 -0.454,0.376 -0.8,0.317 -1.875,-0.317 C 41,96.141 41.345,96.11 39.631,97.354 m 31.402,0.801 c -1.327,0.879 -1.102,0.955 0.483,0.164 1.77,-0.883 2.817,-0.19 2.451,1.621 -0.431,2.127 -0.239,3.081 0.849,4.216 1.756,1.833 1.654,8.456 -0.12,7.775 -0.348,-0.133 -0.526,0.049 -0.526,0.536 0,0.406 0.249,0.834 0.553,0.951 1.37,0.525 0.401,3.187 -1.16,3.187 -0.784,0 -1.976,1.212 -1.976,2.009 0,0.203 0.258,0 0.574,-0.451 0.36,-0.514 0.959,-0.82 1.603,-0.82 3.232,0 4.041,-11.9 0.959,-14.101 -0.203,-0.145 -0.325,-1.288 -0.272,-2.539 0.142,-3.309 -0.992,-4.154 -3.418,-2.548 M 313.816,97.94 c -0.393,0.288 -0.618,0.621 -0.498,0.741 0.119,0.119 0.518,-0.117 0.887,-0.524 0.784,-0.866 0.623,-0.956 -0.389,-0.217 m -0.826,4.344 c -0.081,3.457 -0.358,3.981 -1.632,3.088 -1.75,-1.226 -5.454,-0.329 -5.454,1.32 0,0.23 0.344,-0.019 0.765,-0.554 0.904,-1.15 2.689,-1.304 4.465,-0.385 1.804,0.933 2.21,0.229 2.057,-3.568 l -0.126,-3.108 -0.075,3.207 m -19.067,0.668 c 0.233,3.227 -0.04,3.503 -3.475,3.528 -4.884,0.036 -4.969,0.491 -4.794,25.561 0.151,21.552 0.327,22.941 2.9,22.941 2.139,0 3.318,3.094 3.325,8.727 0.003,2.657 0.883,3.282 4.036,2.867 2.657,-0.35 3.287,0.567 3.424,4.98 0.143,4.607 0.645,5.081 4.669,4.417 3.755,-0.62 4.212,-0.154 4.474,4.567 l 0.19,3.408 1.291,0.252 c 0.71,0.138 2.45,0.421 3.866,0.627 2.864,0.417 3.514,0.947 3.514,2.861 0,3.684 0.944,3.842 22.538,3.786 22.383,-0.058 20.553,0.379 21.137,-5.049 0.261,-2.426 0.621,-2.661 4.086,-2.661 4.177,0 4.934,-0.85 4.991,-5.601 0.022,-1.863 0.678,-2.369 3.404,-2.624 4.121,-0.384 5.528,-1.782 5.837,-5.797 l 0.184,-2.399 1.845,-0.3 c 4.236,-0.689 4.744,-0.83 4.888,-1.36 0.118,-0.437 0.077,-0.451 -0.193,-0.066 -0.215,0.305 -1.573,0.582 -3.626,0.738 l -3.283,0.25 -0.207,2.583 c -0.348,4.338 -1.211,5.232 -5.687,5.893 -3.875,0.572 -3.62,0.302 -3.758,3.981 -0.151,4.058 -0.561,4.432 -4.509,4.119 -3.829,-0.303 -4.801,0.672 -4.834,4.848 -0.022,2.855 -0.763,2.952 -22.149,2.885 -19.605,-0.061 -19.926,-0.109 -19.926,-2.976 0,-0.685 -0.24,-1.822 -0.534,-2.525 l -0.535,-1.28 h -3.132 c -4.807,0 -5.024,-0.149 -5.024,-3.441 0,-4.648 -1.059,-6.17 -3.755,-5.397 -4.425,1.269 -5.47,0.424 -5.47,-4.422 0,-4.358 -0.383,-4.821 -3.985,-4.821 -3.182,0 -3.39,-0.223 -3.417,-3.672 -0.046,-5.81 -1.047,-8.136 -3.503,-8.136 -2.269,0 -2.183,0.86 -2.315,-23.219 -0.118,-21.684 -0.109,-22.013 0.634,-22.957 0.833,-1.059 3.555,-1.615 5.075,-1.037 1.974,0.751 2.955,-1.798 1.995,-5.186 -0.309,-1.09 -0.339,-0.918 -0.192,1.107 m -262.9,2.817 c -0.421,0.535 -0.757,1.241 -0.748,1.569 0.009,0.327 0.345,-0.027 0.746,-0.788 0.802,-1.518 1.863,-1.803 3.134,-0.842 1.096,0.829 1.499,0.667 0.431,-0.173 -1.307,-1.028 -2.639,-0.94 -3.563,0.234 m 274.665,8.438 c 0,3.653 0.055,5.097 0.122,3.21 0.067,-1.888 0.067,-4.877 0,-6.642 -0.068,-1.766 -0.123,-0.221 -0.122,3.432 m -275.646,0.369 c 0,3.653 0.055,5.097 0.122,3.21 0.068,-1.888 0.067,-4.877 0,-6.642 -0.068,-1.766 -0.123,-0.221 -0.122,3.432 m 40.846,5.996 c -0.197,0.761 -0.328,2.131 -0.291,3.044 l 0.067,1.661 H 68.05 c -3.337,0 -3.991,0.463 -3.744,2.654 0.223,1.983 0.08,2.088 -3.879,2.862 -5.24,1.023 -12.514,0.71 -14.571,-0.627 -1.712,-1.113 -2.677,-1.255 -3.796,-0.556 -0.586,0.366 -0.864,0.365 -1.379,-0.005 -0.354,-0.256 -1.142,-0.783 -1.751,-1.172 -0.609,-0.389 -1.605,-1.055 -2.214,-1.48 -0.609,-0.426 -1.771,-1.191 -2.583,-1.7 l -1.476,-0.926 1.107,0.974 c 3.024,2.661 3.614,3.112 4.066,3.112 0.269,0 0.983,0.415 1.586,0.923 1.196,1.006 1.935,1.133 3.067,0.528 0.593,-0.317 1.177,-0.165 2.99,0.778 l 2.254,1.173 6.302,-0.182 c 3.467,-0.1 6.884,-0.361 7.595,-0.578 0.71,-0.218 1.759,-0.493 2.331,-0.61 1.024,-0.21 1.036,-0.243 0.793,-2.185 -0.308,-2.462 -0.103,-2.614 3.518,-2.614 h 2.767 l 0.044,-2.272 c 0.024,-1.25 0.152,-2.703 0.284,-3.229 0.132,-0.526 0.16,-0.957 0.062,-0.957 -0.097,0 -0.338,0.623 -0.535,1.384 m 236.139,1.875 c 1.203,1.602 3.114,3.039 4.713,3.546 0.47,0.149 1.009,0.63 1.199,1.069 0.312,0.724 0.336,0.73 0.25,0.06 -0.061,-0.481 -0.864,-1.147 -2.299,-1.91 -1.213,-0.645 -2.848,-1.89 -3.634,-2.768 l -1.43,-1.595 1.201,1.598 m 38.724,-0.03 c -0.01,2.612 -0.604,3.2 -3.478,3.448 -2.816,0.242 -3.892,1.032 -3.902,2.866 -0.009,1.464 -0.473,1.939 -2.444,2.501 l -1.794,0.512 1.791,-0.148 c 2.162,-0.179 2.806,-0.75 2.953,-2.617 0.152,-1.922 1.257,-2.78 3.582,-2.78 3.073,0 3.666,-0.487 3.666,-3.011 0,-1.185 -0.083,-2.155 -0.184,-2.155 -0.102,0 -0.187,0.623 -0.19,1.384 M 30.258,121.825 c 0,0.3 0.526,1.034 1.168,1.63 l 1.169,1.084 -1.061,-1.476 c -0.584,-0.812 -1.11,-1.545 -1.169,-1.63 -0.058,-0.085 -0.107,0.092 -0.107,0.392 m 283.854,7.146 c 0.915,0.977 1.117,1.042 2.094,0.673 1.752,-0.661 5.162,0.162 6.287,1.517 0.261,0.315 0.912,0.554 1.445,0.531 0.775,-0.035 0.821,-0.081 0.232,-0.229 -0.406,-0.102 -1.259,-0.643 -1.896,-1.201 -1.274,-1.117 -4.719,-1.806 -5.925,-1.185 -0.764,0.394 -1.459,0.226 -2.511,-0.605 -0.406,-0.321 -0.283,-0.096 0.274,0.499 m 12.918,3.036 c 1.166,0.073 3.076,0.073 4.243,0 1.167,-0.073 0.212,-0.133 -2.122,-0.133 -2.334,0 -3.288,0.06 -2.121,0.133 M 40.125,143.8 c 1.618,0.313 1.941,1.387 1.941,6.44 0,6.073 0.497,5.671 -7.384,5.991 -6.834,0.277 -7.215,0.198 -7.483,-1.553 -0.141,-0.922 -0.155,-0.911 -0.206,0.166 -0.095,1.973 0.31,2.066 7.766,1.792 8.285,-0.306 7.678,0.218 7.671,-6.614 -0.007,-5.802 -0.092,-6.086 -1.869,-6.26 -0.694,-0.067 -0.89,-0.051 -0.436,0.038 m -12.829,0.868 c -0.223,0.417 -0.334,1.123 -0.248,1.569 0.137,0.704 0.164,0.683 0.208,-0.159 0.08,-1.538 0.732,-1.765 5.424,-1.89 l 4.405,-0.118 -4.692,-0.079 c -4.396,-0.075 -4.717,-0.032 -5.097,0.677 m 274.719,-0.238 c -0.621,0.454 -0.717,1.041 -0.768,4.705 l -0.058,4.186 0.236,-3.997 c 0.313,-5.31 -0.14,-5.044 8.569,-5.044 8.136,0 7.349,-0.651 7.349,6.091 v 4.922 l -1.199,0.378 c -4.172,1.316 -14.299,0.549 -14.299,-1.082 0,-0.369 -0.136,-0.755 -0.302,-0.858 -0.166,-0.102 -0.23,0.309 -0.141,0.914 0.285,1.942 1.351,2.188 8.428,1.942 8.37,-0.291 7.882,0.104 7.882,-6.381 0,-2.82 -0.101,-5.39 -0.224,-5.711 -0.314,-0.819 -14.361,-0.878 -15.473,-0.065 m -200.212,28.606 c -0.652,1.527 -1.515,1.871 -4.709,1.873 -1.073,0.001 -2.171,0.284 -2.957,0.764 l -1.251,0.762 0.203,2.681 c 0.229,3.033 0.146,3.264 -1.392,3.857 l -1.107,0.426 1.105,-0.216 c 1.926,-0.377 2.109,-0.746 1.833,-3.694 -0.312,-3.324 0.243,-3.847 4.443,-4.19 2.934,-0.24 3.998,-0.841 4.412,-2.491 0.359,-1.431 0.083,-1.322 -0.58,0.228 m 278.271,24.683 c -0.508,0.15 -1.184,0.79 -1.502,1.422 -1.326,2.629 -2.52,3.583 -6.179,4.942 -0.812,0.302 -1.628,1.086 -2.432,2.337 -1.676,2.61 -3.839,4.603 -5.474,5.043 -1.809,0.487 -1.838,0.648 -1.693,9.285 0.138,8.189 0.091,8.057 3.114,8.782 3.002,0.72 3.522,1.274 4.009,4.272 l 0.413,2.545 2.249,0.553 c 2.503,0.616 5.28,2.866 5.28,4.279 0.001,1.951 0.62,2.069 11.794,2.246 L 400,243.589 v -22.902 -22.901 h -7.326 c -4.029,0 -8.305,-0.076 -9.502,-0.169 -1.197,-0.094 -2.591,-0.047 -3.098,0.102 M 0,220.453 v 22.667 l 1.937,0.198 c 1.066,0.108 6.314,0.271 11.662,0.361 l 9.725,0.165 1.078,-2.457 c 0.593,-1.351 1.203,-2.685 1.356,-2.964 0.184,-0.335 1.142,-0.545 2.819,-0.619 3.147,-0.139 4.245,-0.854 4.834,-3.145 0.953,-3.705 2.183,-5.122 5.246,-6.046 1.485,-0.448 1.977,-2.038 1.747,-5.643 -0.113,-1.776 -0.203,-4.838 -0.199,-6.805 0.007,-4.06 -0.226,-4.515 -2.51,-4.901 -1.784,-0.301 -3.503,-1.994 -4.289,-4.222 -0.876,-2.482 -1.052,-2.594 -3.951,-2.507 -3.036,0.091 -3.74,-0.452 -4.153,-3.204 -0.136,-0.907 -0.583,-2.075 -0.993,-2.597 l -0.746,-0.948 H 11.781 0 v 22.667 m 74.238,-16.136 c -0.267,0.103 -0.64,0.595 -0.829,1.093 -0.472,1.241 -1.161,55.337 -0.85,66.713 0.311,11.371 0.079,10.903 5.398,10.903 5.211,0 4.849,-0.746 5.069,10.449 0.231,11.794 -0.249,10.953 6.26,10.953 6.273,0 5.933,-0.351 6.298,6.484 0.586,10.943 1.278,12.802 4.717,12.665 0.743,-0.03 0.596,-0.128 -0.584,-0.392 -2.414,-0.54 -2.603,-1.076 -3.25,-9.198 -0.881,-11.056 -0.513,-10.511 -6.821,-10.106 -6.276,0.404 -5.769,1.298 -6.077,-10.708 -0.289,-11.272 0.069,-10.559 -5.399,-10.741 -5.816,-0.194 -5.196,4.621 -4.93,-38.315 0.226,-36.441 0.283,-38.524 1.068,-39.038 0.229,-0.149 3.171,-0.273 6.539,-0.276 7.799,-0.007 8.304,0.393 6.739,5.356 -1.33,4.219 -0.606,4.601 8.703,4.601 8.227,0 7.639,-0.368 7.966,4.989 0.136,2.228 0.417,4.259 0.624,4.513 0.299,0.366 11.483,0.442 54.115,0.37 l 53.737,-0.091 -53.669,-0.095 c -42.373,-0.074 -53.731,-0.191 -53.962,-0.554 -0.16,-0.253 -0.294,-2.004 -0.297,-3.892 -0.01,-5.93 -0.023,-5.939 -8.475,-5.728 -3.924,0.098 -6.448,0.003 -7.287,-0.274 l -1.284,-0.424 0.228,-1.898 c 0.935,-7.78 1.285,-7.411 -7.119,-7.49 -3.379,-0.032 -6.361,0.027 -6.628,0.131 m 237.939,0.149 c -2.263,0.675 -2.341,0.891 -1.878,5.155 0.532,4.888 1.159,4.539 -8.366,4.655 -9.639,0.117 -9.113,-0.165 -9.506,5.083 -0.144,1.923 -0.478,3.792 -0.743,4.153 -0.454,0.622 -2.61,0.668 -39.163,0.847 l -38.683,0.19 38.78,0.087 c 44.986,0.101 39.913,0.677 40.209,-4.566 0.207,-3.666 0.696,-5.303 1.59,-5.325 0.331,-0.008 3.673,-0.014 7.428,-0.013 4.461,0 7.274,-0.157 8.118,-0.453 1.389,-0.489 1.356,-0.346 0.917,-3.947 -0.487,-4 -0.424,-4.565 0.559,-5.032 2.344,-1.114 12.648,-0.792 13.658,0.426 0.421,0.507 0.545,66.764 0.135,72.194 -0.321,4.256 -0.168,4.112 -4.636,4.37 -2.094,0.121 -4.204,0.438 -4.691,0.704 l -0.884,0.485 0.2,9.238 0.201,9.237 -0.867,0.868 c -0.816,0.815 -1.139,0.868 -5.313,0.868 -6.341,0 -5.979,-0.59 -5.822,9.495 0.151,9.738 0.314,9.38 -4.202,9.249 -3.738,-0.108 -4.078,0.22 -3.954,3.819 0.108,3.137 -0.272,3.634 -2.782,3.642 -4.636,0.016 -6.778,2.415 -5.628,6.307 0.442,1.497 -0.502,2.174 -3.031,2.174 -2.419,0 -4.856,1.309 -4.856,2.609 0,1.419 -1.015,3.23 -1.906,3.4 -0.784,0.149 -0.771,0.168 0.145,0.214 1.13,0.057 1.905,-0.878 2.3,-2.775 0.335,-1.608 2.59,-3.079 4.721,-3.079 2.635,0 3.257,-0.709 3.141,-3.581 l -0.099,-2.425 1.811,-1.122 c 1.234,-0.766 2.436,-1.175 3.774,-1.286 2.528,-0.21 2.902,-0.695 2.902,-3.763 0,-3.339 0.34,-3.69 3.575,-3.69 2.468,0 3.873,-0.396 4.446,-1.254 0.149,-0.224 0.273,-3.903 0.276,-8.177 0.007,-9.692 -0.469,-8.934 5.883,-9.347 6.529,-0.424 6.013,0.532 5.87,-10.867 -0.14,-11.213 -0.725,-10.246 6.297,-10.397 4.366,-0.093 4.122,2.463 4.083,-42.733 l -0.03,-34.571 -1.177,-0.618 c -1.42,-0.745 -10.717,-1.07 -12.802,-0.448 m -50.922,32.128 c -1.523,0.179 -5.84,0.254 -9.594,0.167 -5.292,-0.122 -6.163,-0.084 -3.875,0.172 1.624,0.181 5.994,0.382 9.712,0.445 7.399,0.127 7.43,0.137 7.441,2.369 0.009,1.87 -1.092,2.175 -9.069,2.509 -7.609,0.319 -8.638,0.785 -8.638,3.91 0,2.612 -4.951,3.824 -14.716,3.602 -4.709,-0.106 -6.09,-0.032 -6.165,0.333 -0.053,0.259 -0.017,0.317 0.079,0.128 0.104,-0.202 2.56,-0.26 5.99,-0.141 4.542,0.158 6.651,0.062 9.639,-0.438 5.497,-0.919 5.415,-0.87 5.619,-3.331 0.273,-3.292 0.211,-3.267 9.062,-3.626 8.534,-0.346 8.563,-0.355 8.814,-2.895 0.313,-3.166 -0.36,-3.668 -4.299,-3.204 m -124.724,1.045 c -0.444,0.829 -0.48,4.418 -0.052,5.094 0.226,0.355 2.081,0.531 7.098,0.67 7.76,0.217 7.715,0.197 7.715,3.276 0,3.318 -0.332,3.213 9.967,3.157 4.952,-0.027 9.08,-0.126 9.174,-0.22 0.093,-0.093 -3.823,-0.17 -8.703,-0.17 -10.04,0 -9.588,0.136 -9.958,-2.99 -0.396,-3.337 -0.685,-3.466 -8.028,-3.584 -3.896,-0.063 -6.442,-0.256 -6.749,-0.511 -0.588,-0.488 -0.356,-4.333 0.285,-4.729 0.221,-0.137 15.711,-0.198 34.421,-0.136 18.71,0.063 41.906,-0.014 51.546,-0.17 13.748,-0.223 6.328,-0.294 -34.41,-0.33 -50.351,-0.045 -51.949,-0.025 -52.306,0.643 m 35.794,12.505 c 0.857,0.238 0.929,0.437 1.023,2.823 0.16,4.095 -0.683,3.874 14.424,3.781 l 12.782,-0.079 -12.854,-0.198 c -14.747,-0.227 -13.899,-10e-4 -13.899,-3.7 0,-2.212 -0.431,-2.978 -1.642,-2.919 -0.633,0.031 -0.606,0.079 0.166,0.292 m 53.575,2.531 c -0.129,3.59 -0.579,3.709 -15.752,4.167 l -9.225,0.278 10.332,-0.149 c 14.725,-0.213 15.081,-0.31 14.85,-4.052 l -0.135,-2.181 -0.07,1.937 m -13.504,25.089 c -0.196,0.196 -13.4,0.32 -48.189,0.454 -21.759,0.084 -21.034,-0.006 -21.034,2.589 0,1.697 -0.661,2.216 -2.835,2.224 -2.302,0.008 -3.069,0.343 -3.069,1.341 0,2.833 -1.403,4.156 -4.662,4.394 -7.498,0.549 -8.62,1.019 -8.627,3.622 -0.004,1.041 -0.128,2.069 -0.277,2.284 -0.422,0.61 -4.398,1.725 -5.221,1.464 -0.576,-0.183 -0.935,0.082 -1.655,1.222 -0.505,0.801 -1.438,1.825 -2.072,2.277 -0.634,0.451 -1.302,1.212 -1.483,1.69 -0.198,0.518 -0.745,0.959 -1.359,1.093 -3.744,0.819 -3.979,1.386 -3.979,9.575 0,7.804 0.081,8.126 2.296,9.076 4.706,2.017 6.108,3.694 5.253,6.285 -0.648,1.961 -0.192,2.258 3.003,1.961 5.062,-0.472 6.754,0.91 6.354,5.188 l -0.233,2.502 2.918,-0.245 c 11.706,-0.98 12.459,-0.808 11.572,2.651 -0.653,2.55 -0.96,2.456 7.595,2.332 l 7.546,-0.109 0.385,1.014 c 0.212,0.558 0.28,1.72 0.151,2.582 -0.348,2.318 -0.089,2.382 9.787,2.401 9.616,0.02 9.609,0.017 9.609,2.719 0,2.516 -1.411,2.381 25.853,2.466 29.392,0.092 26.858,0.474 27.825,-4.2 l 0.21,-1.015 6.728,-0.026 c 7.172,-0.028 12.217,-0.359 12.691,-0.833 0.16,-0.16 0.244,-1.326 0.187,-2.592 -0.156,-3.475 0.02,-3.566 6.79,-3.506 9.204,0.082 13.443,-1.122 13.443,-3.817 0,-1.81 2.618,-2.334 5.166,-1.034 2.807,1.432 3.804,0.953 4.227,-2.029 0.639,-4.508 1.905,-5.881 3.759,-4.08 1.57,1.524 2.131,1.33 2.481,-0.863 0.173,-1.081 0.56,-1.667 1.615,-2.442 0.762,-0.561 2.59,-2.27 4.062,-3.797 l 2.675,-2.776 0.059,-3.538 c 0.223,-13.41 -0.535,-16.634 -3.912,-16.639 -3.308,-0.005 -6.411,-1.598 -6.916,-3.551 -0.172,-0.663 -0.863,-1.585 -1.623,-2.165 -0.883,-0.673 -1.268,-1.228 -1.154,-1.664 0.372,-1.421 -2.53,-2.34 -8.779,-2.78 -4.986,-0.352 -5.872,-0.82 -5.554,-2.937 l 0.24,-1.601 -2.14,-0.412 c -6.142,-1.181 -6.383,-1.314 -6.383,-3.523 0,-0.894 -0.222,-1.754 -0.516,-1.998 -0.843,-0.7 -42.152,-1.89 -42.808,-1.234 m -108.12,45.831 c 2.198,0.526 2.435,1.096 1.444,3.47 -0.722,1.728 -0.702,2.981 0.059,3.609 0.56,0.463 0.569,0.436 0.104,-0.309 -0.422,-0.679 -0.428,-1.083 -0.032,-2.399 1.111,-3.697 0.763,-4.755 -1.542,-4.681 l -1.172,0.038 1.139,0.272 m 3.289,7.766 c 0.405,0.154 1.768,0.4 3.027,0.546 2.997,0.347 3.203,0.631 2.647,3.648 -0.544,2.955 -0.135,3.774 1.685,3.374 4.231,-0.931 5.356,-0.218 5.366,3.406 0.007,2.602 0.859,3.218 3.809,2.755 5.373,-0.842 8.927,0.525 8.927,3.434 0,2.542 0.506,2.737 6.597,2.548 6.42,-0.2 6.617,-0.1 6.899,3.507 0.312,4.011 0.051,3.92 12.334,4.284 4.059,0.12 7.837,0.396 8.395,0.612 1.063,0.412 1.082,0.453 1.154,2.509 0.08,2.282 -1.06,2.201 31.615,2.247 l 29.661,0.042 0.658,-0.812 c 0.361,-0.447 0.657,-1.349 0.657,-2.006 0,-2.306 0.378,-2.404 10.279,-2.666 10.642,-0.281 10.478,-0.229 10.831,-3.414 0.143,-1.295 0.433,-2.526 0.643,-2.737 0.42,-0.42 8.479,-1.658 11.021,-1.693 2.135,-0.03 3.019,-0.553 3.021,-1.788 0.004,-2.811 2.45,-4.587 5.971,-4.334 l 2.33,0.167 -2.214,-0.357 c -3.477,-0.56 -5.903,0.755 -6.331,3.433 -0.326,2.037 -1.05,2.319 -7.297,2.842 -7.417,0.62 -7.573,0.713 -7.584,4.49 -0.008,2.439 0.076,2.417 -10.522,2.705 -10.655,0.289 -10.133,0.147 -10.561,2.852 -0.491,3.109 1.928,2.883 -30.862,2.883 -32.313,0 -30.717,0.124 -30.717,-2.403 0,-2.795 -0.405,-2.911 -11.052,-3.16 -11.092,-0.259 -11.544,-0.445 -10.937,-4.496 0.434,-2.891 0.107,-3.04 -6.672,-3.046 -6.624,-0.007 -6.931,-0.096 -6.59,-1.913 0.592,-3.156 -3.875,-5.189 -9.23,-4.199 -3.158,0.584 -3.779,0.085 -3.566,-2.863 0.248,-3.417 -2.501,-5.413 -4.927,-3.578 -2.101,1.589 -3.022,0.261 -2.186,-3.151 0.825,-3.366 0.674,-3.519 -3.696,-3.763 -1.827,-0.102 -2.989,-0.059 -2.583,0.095"
       stroke="none"
       fill="#ef7a5f"
       fill-rule="evenodd" />
    <path
       id="path4"
       d="m 311.646,79.3 c -0.525,0.831 -1.169,1.512 -1.432,1.512 -1.401,0 -1.871,0.935 -1.37,2.724 0.538,1.92 -0.198,3.404 -1.518,3.059 -0.35,-0.092 -0.976,0.071 -1.391,0.362 -0.607,0.426 -1.053,0.449 -2.277,0.119 -1.925,-0.518 -2.31,-0.358 -3.438,1.429 -0.505,0.8 -1.661,2.366 -2.568,3.48 -1.131,1.388 -1.53,2.144 -1.27,2.405 0.539,0.539 0.111,1.052 -1.079,1.296 -2.05,0.419 -2.305,0.896 -2.559,4.782 -0.229,3.496 -0.265,3.612 -1.195,3.833 -0.527,0.126 -1.159,0.387 -1.405,0.58 -0.245,0.192 -0.958,0.238 -1.583,0.101 -1.669,-0.367 -2.698,0.474 -3.259,2.666 -1.135,4.428 -1.625,23.999 -0.991,39.584 0.095,2.334 0.172,4.742 0.172,5.351 -10e-4,1.944 0.761,3.679 1.903,4.334 0.594,0.341 1.177,0.917 1.294,1.28 0.118,0.362 0.779,1.826 1.47,3.252 0.876,1.808 1.256,3.112 1.256,4.306 v 1.713 l 1.753,0.428 c 0.964,0.236 2.292,0.47 2.95,0.521 1.641,0.126 1.771,0.343 1.634,2.739 -0.129,2.267 0.377,4.119 1.126,4.123 0.259,0.001 0.742,0.479 1.073,1.062 0.717,1.261 2.591,1.649 4.996,1.036 1.726,-0.44 2.704,0.02 2.704,1.271 0,0.384 0.206,1.028 0.458,1.431 0.365,0.584 0.364,0.883 -0.006,1.475 -0.98,1.569 0.997,4.055 3.225,4.055 0.452,0 1.262,0.236 1.801,0.524 0.539,0.289 1.27,0.616 1.625,0.727 0.356,0.111 0.646,0.555 0.646,0.986 0,0.446 0.288,0.859 0.666,0.958 0.367,0.096 0.85,0.661 1.075,1.256 0.225,0.595 0.714,1.191 1.087,1.324 0.373,0.132 0.935,0.46 1.249,0.728 0.73,0.623 15.881,0.89 31.292,0.551 l 10.83,-0.238 0.926,-1.077 c 0.767,-0.892 0.896,-1.35 0.748,-2.661 -0.231,-2.044 0.985,-2.871 4.653,-3.165 3.56,-0.286 4.208,-1.099 4.345,-5.448 0.061,-1.948 0.663,-2.952 1.771,-2.954 3.17,-0.007 7.773,-3.365 7.784,-5.679 0.009,-1.788 1.782,-3.175 4.059,-3.175 1.636,0 2.438,-1.444 2.701,-4.86 0.134,-1.743 0.492,-3.646 0.796,-4.229 0.304,-0.582 0.553,-1.276 0.555,-1.542 10e-4,-0.266 0.168,-0.38 0.371,-0.255 0.207,0.128 0.369,-0.16 0.369,-0.654 0,-0.614 0.419,-1.154 1.379,-1.775 2.432,-1.574 2.368,-1.002 2.45,-21.858 0.061,-15.52 0.171,-19.144 0.613,-20.33 0.423,-1.131 0.439,-1.478 0.078,-1.599 -0.253,-0.086 -0.461,-0.69 -0.461,-1.343 0,-1.382 -1.951,-4.286 -2.879,-4.286 -1.989,0 -4.667,-1.615 -4.165,-2.512 0.47,-0.84 -0.162,-3.286 -1.26,-4.869 -1.032,-1.49 -1.494,-1.785 -1.723,-1.1 -0.21,0.63 -3.171,-0.745 -3.388,-1.574 -0.126,-0.48 -0.393,-0.666 -0.758,-0.526 -0.31,0.119 -0.662,0.058 -0.782,-0.136 -0.12,-0.194 0.041,-0.353 0.358,-0.353 0.705,0 0.707,-0.076 0.04,-1.672 -0.344,-0.824 -0.394,-1.28 -0.139,-1.28 0.252,0 0.229,-0.2 -0.064,-0.554 -0.253,-0.304 -0.664,-0.553 -0.914,-0.553 -0.25,0 -0.919,-0.431 -1.488,-0.958 -0.784,-0.727 -1.486,-0.981 -2.914,-1.055 -1.034,-0.053 -2.908,-0.464 -4.165,-0.913 l -2.285,-0.816 0.032,-2.253 c 0.029,-2.01 -0.073,-2.337 -0.934,-3.019 -2.688,-2.128 -3.123,-2.376 -3.837,-2.189 -0.414,0.108 -1.249,-0.061 -1.856,-0.375 -0.812,-0.42 -1.775,-0.521 -3.641,-0.383 -7.737,0.573 -41.372,0.254 -43.561,-0.412 -0.658,-0.201 -0.976,0.028 -1.758,1.267 M 37.595,78.734 c -4.133,0.706 -6.103,2.46 -5.445,4.845 0.336,1.216 0.28,1.431 -0.575,2.224 -0.521,0.483 -0.948,1.197 -0.948,1.588 0,1.5 -1.901,1.812 -3.363,0.552 -1.872,-1.613 -4.386,0.536 -4.386,3.749 0,0.51 -0.155,0.928 -0.344,0.928 -0.55,0 -0.837,1.386 -0.44,2.128 0.491,0.918 -0.016,1.625 -1.097,1.527 -3.612,-0.326 -5.713,2.032 -5.353,6.009 0.255,2.806 0.238,2.828 -2.397,3.14 -3.545,0.42 -4.557,2.278 -4.984,9.152 -0.127,2.029 -0.205,3.856 -0.175,4.059 0.315,2.118 0.358,25.86 0.052,28.903 -0.332,3.293 -0.307,4.011 0.163,4.728 0.304,0.464 0.558,1.141 0.565,1.503 0.018,1.047 0.911,1.951 1.926,1.951 0.698,0 0.995,0.242 1.175,0.958 0.196,0.784 0.398,0.919 1.104,0.742 0.976,-0.245 1.814,0.492 1.497,1.317 -0.111,0.29 0.068,1.172 0.397,1.961 0.423,1.012 0.533,1.981 0.373,3.301 -0.223,1.852 0.673,4.267 1.584,4.267 1.323,0 3.003,1.158 2.464,1.698 -0.821,0.82 -0.705,1.1 0.446,1.084 1.001,-0.015 1.014,0.016 0.971,2.199 -0.028,1.434 0.061,1.954 0.251,1.476 0.24,-0.602 0.299,-0.518 0.32,0.462 0.025,1.148 1.116,1.851 1.146,0.738 0.007,-0.268 0.278,-0.152 0.645,0.276 0.674,0.785 3.087,2.03 3.934,2.03 0.618,0 2.419,2.071 2.419,2.781 0,2.19 3.634,5.092 6.778,5.413 1.07,0.109 1.666,1.083 2.216,3.618 0.535,2.463 4.039,2.912 23.11,2.961 15.7,0.041 20.907,-0.308 22.427,-1.504 1.251,-0.984 2.665,-3.085 2.665,-3.96 0,-1.23 1.721,-2.466 3.517,-2.526 1.128,-0.038 1.994,-0.345 2.836,-1.007 2.469,-1.94 2.478,-1.955 2.23,-3.45 -0.423,-2.553 -0.365,-2.722 1.111,-3.236 0.766,-0.267 2.124,-0.595 3.019,-0.729 1.67,-0.25 4.2,-2.431 4.307,-3.713 0.026,-0.304 0.088,-0.718 0.139,-0.921 0.05,-0.203 0.113,-0.862 0.138,-1.463 0.061,-1.455 1.077,-1.955 4.067,-2.004 3.245,-0.053 3.876,-0.978 3.45,-5.06 -0.314,-3.017 0.064,-5.2 1.109,-6.393 4.428,-5.056 4.375,-4.596 4.011,-35.449 -0.157,-13.315 -0.219,-13.831 -1.749,-14.575 -0.627,-0.305 -1.076,-0.733 -0.999,-0.952 0.076,-0.218 -0.695,-0.851 -1.714,-1.406 -2.086,-1.135 -2.756,-2.081 -2.479,-3.5 0.315,-1.616 -2.361,-4.24 -4.922,-4.828 -2.915,-0.669 -3.03,-0.77 -3.574,-3.164 -0.271,-1.196 -0.801,-2.513 -1.176,-2.927 -0.376,-0.413 -0.864,-1.104 -1.086,-1.535 -0.413,-0.803 -4.089,-1.615 -7.308,-1.615 -1.018,0 -1.268,-0.125 -1.104,-0.554 0.117,-0.304 0.079,-0.553 -0.085,-0.553 -0.498,0 -1.155,-1.801 -1.155,-3.166 0,-0.892 -0.198,-1.355 -0.646,-1.512 -0.355,-0.125 -1.1,-0.647 -1.655,-1.16 L 85.988,79.207 68.916,79.07 C 59.527,78.995 50.629,78.775 49.143,78.581 45.702,78.132 40.729,78.198 37.595,78.734 m 48.88,2.4 c 0.478,0.396 0.61,1.171 0.61,3.571 0,3.935 0.252,4.216 3.809,4.251 7.834,0.077 8.368,0.466 8.368,6.098 0,3.621 0.093,3.718 3.064,3.206 4.316,-0.743 5.7,0.544 4.876,4.535 -0.898,4.344 -0.765,4.585 2.529,4.585 2.957,0 4.854,0.488 5.178,1.332 0.114,0.298 0.225,9.793 0.247,21.099 0.044,23.474 0.093,23.01 -2.58,24.292 -2.683,1.288 -3.345,4.071 -2.218,9.324 0.641,2.993 0.188,3.455 -3.287,3.35 -3.998,-0.122 -4.035,-0.112 -4.696,1.164 -0.488,0.946 -0.523,1.437 -0.194,2.745 0.771,3.06 -0.364,4.298 -4.229,4.614 -4.179,0.342 -4.735,0.869 -4.424,4.189 0.308,3.295 0.056,3.572 -3.393,3.734 -1.373,0.064 -3.161,0.353 -3.973,0.641 l -1.476,0.525 -0.208,2.379 c -0.247,2.831 -0.435,3.19 -2.013,3.849 -5.368,2.243 -42.166,1.649 -42.262,-0.682 -0.219,-5.281 -0.647,-5.931 -3.685,-5.587 -4.101,0.464 -5.153,-0.508 -5.153,-4.758 0,-3.391 -0.193,-3.578 -3.818,-3.681 -3.484,-0.098 -3.654,-0.275 -3.909,-4.059 -0.254,-3.773 -1.031,-5.266 -2.545,-4.89 -3.894,0.966 -4.479,0.541 -4.508,-3.272 -0.06,-7.967 -0.641,-9.444 -3.714,-9.444 -3.111,0 -2.911,1.509 -2.886,-21.706 0.028,-26.175 -0.145,-25.158 4.274,-25.158 2.868,0 3.005,-0.205 2.809,-4.207 -0.123,-2.513 -0.025,-3.268 0.562,-4.309 0.768,-1.362 0.881,-1.385 4.401,-0.884 l 1.92,0.274 -0.075,-3.903 c -0.095,-4.955 -0.222,-4.831 4.813,-4.724 2.193,0.047 4.447,-0.089 5.009,-0.303 l 1.022,-0.389 -0.249,-3.618 c -0.376,-5.466 -3.409,-4.912 26.21,-4.792 20.691,0.084 25.293,0.193 25.794,0.609 m 277.537,0.038 c 0.565,0.469 0.631,0.988 0.475,3.732 -0.237,4.152 -0.087,4.39 2.782,4.415 9.326,0.081 10.58,1.069 9.278,7.309 -0.33,1.58 0.133,1.88 2.573,1.664 4.981,-0.441 6.594,1.236 5.223,5.427 -1.138,3.479 -1.052,3.556 4.141,3.743 2.152,0.077 3.156,0.265 3.384,0.634 0.178,0.288 0.296,10.267 0.261,22.19 -0.07,24.354 0.118,22.795 -2.848,23.593 -2.352,0.634 -2.75,1.658 -2.75,7.079 0,5.5 0.093,5.352 -3.641,5.826 -3.632,0.46 -3.554,0.397 -3.554,2.867 0,3.729 -1.738,5.506 -5.752,5.88 -2.811,0.263 -3.467,0.757 -3.489,2.632 -0.057,4.751 -0.814,5.601 -4.991,5.601 -3.465,0 -3.825,0.235 -4.086,2.661 -0.584,5.428 1.246,4.991 -21.137,5.049 -21.594,0.056 -22.538,-0.102 -22.538,-3.786 0,-1.914 -0.65,-2.444 -3.514,-2.861 -1.416,-0.206 -3.156,-0.489 -3.866,-0.627 l -1.291,-0.252 -0.19,-3.408 c -0.262,-4.721 -0.719,-5.187 -4.474,-4.567 -4.024,0.664 -4.526,0.19 -4.669,-4.417 -0.137,-4.413 -0.767,-5.33 -3.424,-4.98 -3.153,0.415 -4.033,-0.21 -4.036,-2.867 -0.007,-5.633 -1.186,-8.727 -3.325,-8.727 -2.573,0 -2.749,-1.389 -2.9,-22.941 -0.175,-25.07 -0.09,-25.525 4.794,-25.561 3.541,-0.025 3.662,-0.183 3.406,-4.45 -0.271,-4.518 0.043,-4.954 3.112,-4.32 3.183,0.657 3.542,0.429 3.295,-2.103 -0.51,-5.228 0.503,-6.996 3.646,-6.365 5.46,1.097 7.553,-0.232 7.263,-4.611 -0.154,-2.332 -0.083,-2.729 0.611,-3.423 l 0.785,-0.785 25.395,0.102 c 21.749,0.088 25.489,0.181 26.051,0.647 M 48.172,91.944 c -3.541,0.404 -3.284,0.164 -3.208,2.979 0.086,3.179 -0.214,3.556 -2.138,2.688 -1.66,-0.748 -2.215,-0.604 -4.139,1.072 -1.789,1.559 -2.218,2.837 -1.62,4.825 0.844,2.805 -0.03,3.665 -2.446,2.405 -1.855,-0.967 -2.757,-0.944 -3.296,0.083 -0.432,0.822 -0.428,0.823 0.342,0.14 0.428,-0.38 0.992,-0.581 1.253,-0.447 0.261,0.134 0.89,0.484 1.397,0.778 2.037,1.178 3.524,0.489 3.348,-1.553 -0.366,-4.246 -0.294,-4.556 1.416,-6.073 1.85,-1.642 2.124,-1.69 3.847,-0.673 1.831,1.08 2.459,0.372 2.459,-2.771 0,-2.303 0.017,-2.342 1.2,-2.756 1.597,-0.559 12.073,-0.875 16.697,-0.503 l 3.69,0.297 0.301,2.399 c 0.475,3.775 0.545,3.96 1.655,4.347 1.035,0.361 3.395,-0.411 2.868,-0.938 -0.123,-0.123 -0.42,-0.027 -0.66,0.213 -1.628,1.628 -3.239,0.071 -3.247,-3.137 -0.003,-1.18 -0.162,-2.393 -0.354,-2.696 -0.624,-0.988 -12.882,-1.418 -19.365,-0.679 m 274.093,0.675 c -1.002,0.404 -1.342,1.439 -1.025,3.125 0.438,2.336 -1.19,3.226 -2.62,1.432 -0.955,-1.198 -1.94,-1.042 -3.952,0.624 l -1.384,1.147 v 3.249 c 0,3.844 -0.383,4.47 -2.169,3.547 -4.191,-2.168 -5.214,-0.547 -5.2,8.237 l 0.011,6.869 1.38,1.595 c 0.758,0.878 2.371,2.123 3.584,2.768 1.375,0.73 2.255,1.45 2.338,1.91 0.156,0.87 1.111,2.029 1.671,2.029 0.217,0 0.036,-0.251 -0.402,-0.557 -0.437,-0.307 -0.848,-1.007 -0.912,-1.557 -0.095,-0.819 -0.573,-1.236 -2.643,-2.312 -1.796,-0.934 -2.836,-1.767 -3.598,-2.885 l -1.071,-1.571 v -6.615 c 0,-8.133 1.034,-9.73 4.841,-7.481 1.876,1.108 2.324,0.438 2.539,-3.797 l 0.185,-3.635 1.476,-1.019 c 1.874,-1.293 2.174,-1.287 3.136,0.064 1.663,2.336 3.46,1.06 3.253,-2.309 -0.179,-2.918 -0.176,-2.919 11.692,-2.775 5.48,0.067 9.216,0.004 8.302,-0.138 -2.391,-0.372 -18.485,-0.327 -19.432,0.055 M 344.27,93.4 c 0.502,0.2 1.039,0.563 1.194,0.807 0.218,0.342 0.282,0.341 0.287,-0.006 0.006,-0.499 -1.158,-1.225 -1.908,-1.189 -0.267,0.013 -0.075,0.188 0.427,0.388 m 1.62,4.834 c 0.066,4.169 0.552,4.816 2.582,3.438 1.622,-1.101 2.267,-1.167 2.823,-0.288 0.237,0.374 0.351,0.424 0.273,0.118 -0.307,-1.191 -1.34,-1.352 -2.908,-0.453 -1.988,1.139 -2.291,0.788 -2.585,-3.003 l -0.235,-3.028 0.05,3.216 m -272.415,4.228 c -0.024,0.442 0.347,1.272 0.824,1.845 0.477,0.574 1.06,1.542 1.295,2.151 l 0.428,1.107 -0.195,-1.279 c -0.107,-0.703 -0.59,-1.699 -1.074,-2.214 -0.484,-0.514 -0.96,-1.268 -1.058,-1.673 -0.165,-0.688 -0.181,-0.683 -0.22,0.063 m 278.271,0.859 c 0,0.71 0.076,1.001 0.169,0.646 0.093,-0.355 0.093,-0.937 0,-1.292 -0.093,-0.355 -0.169,-0.064 -0.169,0.646 m -0.103,4.414 c -0.13,0.991 -0.373,1.325 -1.088,1.492 -0.85,0.198 -1.574,1.474 -0.837,1.474 1.042,0 1.756,1.155 1.973,3.194 l 0.23,2.157 0.054,-2.146 c 0.03,-1.181 -0.117,-2.468 -0.327,-2.86 -0.267,-0.498 -0.26,-0.942 0.022,-1.469 0.222,-0.415 0.344,-1.287 0.271,-1.937 l -0.132,-1.182 -0.166,1.277 M 30.488,107.579 c -0.126,0.33 -0.202,1.79 -0.167,3.245 l 0.062,2.645 0.227,-3.137 c 0.244,-3.381 0.231,-3.672 -0.122,-2.753 m 45.051,2.884 c -0.148,0.377 -0.495,0.597 -0.774,0.49 -1.312,-0.504 -1.761,1.534 -0.595,2.7 1.189,1.189 0.673,2.386 -1.14,2.642 -1.676,0.237 -2.706,3.253 -2.909,8.52 -0.014,0.381 -1.62,0.349 -2.677,-0.054 -2.07,-0.786 -4.213,1.169 -3.605,3.289 0.411,1.432 0.233,1.825 -0.853,1.882 -0.651,0.035 -0.679,0.076 -0.145,0.215 1.138,0.295 1.659,-0.493 1.465,-2.216 -0.247,-2.191 0.407,-2.654 3.744,-2.654 h 2.614 l 0.029,-2.399 c 0.038,-3.074 1.337,-6.022 2.739,-6.216 1.745,-0.241 2.722,-2.696 1.291,-3.244 -0.304,-0.117 -0.553,-0.545 -0.553,-0.951 0,-0.487 0.178,-0.669 0.526,-0.536 0.676,0.259 1.419,-0.629 1.246,-1.489 -0.127,-0.629 -0.148,-0.628 -0.403,0.021 m 272.329,6.93 c -1.052,0.785 -2.123,2.493 -2.097,3.345 0.008,0.264 0.234,-0.018 0.503,-0.627 0.636,-1.442 1.684,-2.35 3.425,-2.971 1.38,-0.492 1.386,-0.503 0.301,-0.507 -0.609,-0.002 -1.568,0.34 -2.132,0.76 m -317.569,2.54 c -0.054,1.718 1.287,3.649 3.538,5.098 0.975,0.627 2.27,1.49 2.879,1.917 0.609,0.428 1.605,1.096 2.214,1.485 0.609,0.389 1.397,0.916 1.751,1.172 0.515,0.37 0.793,0.371 1.379,0.005 1.11,-0.693 2.076,-0.559 3.796,0.527 1.044,0.659 2.172,1.018 3.406,1.085 l 1.845,0.1 -1.71,-0.267 c -0.94,-0.147 -2.36,-0.719 -3.156,-1.27 -1.567,-1.086 -2.854,-1.252 -4.365,-0.564 -0.865,0.394 -1.044,0.337 -1.77,-0.568 -0.444,-0.554 -1.169,-1.208 -1.612,-1.454 -6.562,-3.638 -7.315,-4.31 -7.846,-7 l -0.309,-1.564 -0.04,1.298 m 315.148,2.46 c -0.129,2.556 -0.583,3.068 -2.726,3.073 -3.411,0.009 -4.714,0.966 -4.714,3.462 0,0.532 -0.345,1.161 -0.82,1.494 -0.451,0.316 -0.629,0.574 -0.395,0.574 0.764,0 1.584,-1.138 1.584,-2.199 0,-1.898 1.051,-2.687 3.903,-2.932 2.872,-0.247 3.672,-1.066 3.375,-3.454 l -0.148,-1.193 -0.059,1.175 m -29.417,6.601 c -0.394,0.32 -0.496,0.468 -0.226,0.33 0.269,-0.139 0.934,-0.386 1.476,-0.55 0.791,-0.238 0.836,-0.304 0.226,-0.329 -0.418,-0.017 -1.082,0.23 -1.476,0.549 m 4.002,0.114 c 0.769,0.165 1.857,0.741 2.419,1.279 1.426,1.366 1.867,1.229 0.51,-0.159 -0.827,-0.845 -1.523,-1.173 -2.719,-1.279 l -1.607,-0.142 1.397,0.301 m -261.914,1.724 -2.214,0.492 2.084,-0.186 c 2.417,-0.215 4.872,-0.823 3.267,-0.808 -0.508,0.005 -1.919,0.231 -3.137,0.502 m 268.912,0.807 c 1.369,0.071 3.611,0.071 4.981,0 1.37,-0.071 0.249,-0.129 -2.491,-0.129 -2.74,0 -3.86,0.058 -2.49,0.129 m -289.108,12.54 c 0.663,0.082 1.659,0.08 2.214,-0.004 0.554,-0.084 0.012,-0.151 -1.206,-0.149 -1.218,0.002 -1.671,0.071 -1.008,0.153 m -10.173,0.544 c -0.243,0.244 -0.431,0.7 -0.417,1.015 0.018,0.395 0.115,0.343 0.313,-0.166 0.253,-0.652 0.732,-0.762 4.125,-0.943 l 3.839,-0.204 -3.709,-0.072 c -2.48,-0.049 -3.855,0.074 -4.151,0.37 m 281.753,-0.176 c 0.659,0.082 1.739,0.082 2.398,0 0.66,-0.081 0.12,-0.148 -1.199,-0.148 -1.319,0 -1.859,0.067 -1.199,0.148 m -7.647,0.998 c -0.418,1.1 -0.454,7.608 -0.05,9.068 0.441,1.592 1.512,1.793 7.974,1.496 l 5.904,-0.272 -6.32,-0.059 c -5.111,-0.047 -6.408,-0.164 -6.779,-0.611 -0.659,-0.793 -0.97,-8.29 -0.389,-9.375 0.246,-0.46 0.356,-0.929 0.244,-1.041 -0.112,-0.112 -0.375,0.245 -0.584,0.794 m 15.205,0.58 c 0,0.711 0.076,1.001 0.169,0.646 0.092,-0.355 0.092,-0.936 0,-1.291 -0.093,-0.355 -0.169,-0.065 -0.169,0.645 m -275.363,4.014 c 0,3.36 -0.135,4.86 -0.461,5.119 -1.093,0.87 -13.208,0.843 -13.56,-0.03 -0.227,-0.561 -0.33,-0.621 -0.346,-0.199 -0.052,1.331 0.788,1.468 7.352,1.202 4.701,-0.191 6.475,-0.393 6.862,-0.78 0.504,-0.504 0.825,-10.064 0.338,-10.064 -0.102,0 -0.185,2.139 -0.185,4.752 m -14.625,0.23 c 0.001,2.03 0.063,2.813 0.138,1.74 0.075,-1.072 0.074,-2.732 -0.002,-3.69 -0.076,-0.957 -0.137,-0.08 -0.136,1.95 m 352.349,45.664 c -0.432,0.457 -1.292,1.217 -1.911,1.689 -0.62,0.472 -1.126,1.158 -1.126,1.524 0,0.858 -3.409,3.403 -5.426,4.052 -1.122,0.361 -1.646,0.773 -1.897,1.492 -0.518,1.488 -3.863,4.622 -5.036,4.719 -2.047,0.17 -3.13,3.032 -2.587,6.84 0.376,2.638 0.381,5.045 0.019,8.811 l -0.308,3.205 1.136,1.136 c 0.625,0.624 1.647,1.237 2.271,1.362 0.781,0.157 1.204,0.497 1.353,1.09 0.119,0.474 0.573,0.973 1.01,1.109 1.056,0.33 1.338,0.839 1.106,2 -0.207,1.031 1.74,2.945 2.995,2.945 0.325,0 0.687,0.253 0.805,0.562 0.119,0.309 1.027,0.91 2.018,1.337 0.992,0.426 1.803,0.928 1.803,1.114 0,0.34 1.287,2.283 2.089,3.152 0.235,0.255 0.498,0.675 0.584,0.932 0.12,0.362 2.599,0.482 10.918,0.529 L 400,245.694 v -1.076 -1.076 l -5.812,-0.083 c -3.196,-0.046 -7.828,-0.088 -10.293,-0.092 -4.843,-0.01 -6.035,-0.442 -6.036,-2.188 0,-1.413 -2.777,-3.663 -5.28,-4.279 l -2.249,-0.553 -0.413,-2.545 c -0.487,-2.998 -1.007,-3.552 -4.009,-4.272 -3.023,-0.725 -2.976,-0.593 -3.114,-8.782 -0.145,-8.637 -0.116,-8.798 1.693,-9.285 1.635,-0.44 3.798,-2.433 5.474,-5.043 0.758,-1.179 1.632,-2.041 2.34,-2.306 0.622,-0.233 1.643,-0.616 2.269,-0.851 1.206,-0.452 3.65,-2.791 3.656,-3.499 10e-4,-0.231 0.318,-0.809 0.703,-1.285 l 0.7,-0.865 10.186,0.117 c 9.099,0.105 10.185,0.055 10.185,-0.467 0,-0.451 -0.403,-0.587 -1.753,-0.595 -5.524,-0.03 -12.762,-0.492 -14.783,-0.945 -3.022,-0.676 -3.117,-0.669 -4.043,0.309 M 0,196.847 v 0.939 h 11.781 11.782 l 0.746,0.948 c 0.41,0.522 0.857,1.69 0.993,2.597 0.413,2.752 1.117,3.295 4.153,3.204 2.899,-0.087 3.075,0.025 3.951,2.507 0.786,2.228 2.505,3.921 4.289,4.222 2.284,0.386 2.517,0.841 2.51,4.901 -0.004,1.967 0.086,5.029 0.199,6.805 0.23,3.605 -0.262,5.195 -1.747,5.643 -3.063,0.924 -4.293,2.341 -5.246,6.046 -0.589,2.291 -1.687,3.006 -4.834,3.145 -1.677,0.074 -2.635,0.284 -2.819,0.619 -0.153,0.279 -0.766,1.62 -1.363,2.98 l -1.085,2.473 -8.426,-0.173 C 10.249,243.608 5.005,243.461 3.229,243.376 0.033,243.223 0,243.23 0,244.097 c 0,1.096 0.486,1.167 10.517,1.527 13.869,0.497 14.357,0.447 15.336,-1.575 0.424,-0.876 0.683,-1.737 0.574,-1.912 -0.337,-0.546 0.881,-1.916 1.704,-1.916 2.595,0 5.246,-1.481 6.149,-3.434 2.359,-5.105 2.404,-5.163 5.076,-6.529 3.103,-1.586 3.39,-2.535 2.745,-9.062 -0.222,-2.244 -0.404,-5.031 -0.404,-6.193 0,-3.657 -0.894,-5.044 -3.479,-5.396 -1.205,-0.164 -1.497,-0.373 -1.727,-1.235 -0.152,-0.57 -0.911,-1.803 -1.687,-2.738 -0.775,-0.936 -1.518,-1.865 -1.651,-2.064 -0.132,-0.2 -1.194,-0.492 -2.358,-0.65 -2.201,-0.299 -4.227,-1.821 -4.227,-3.176 0,-2.33 -2.724,-3.689 -6.826,-3.407 C 17.41,196.498 2.341,196.321 1.199,196.119 0.105,195.926 0,195.99 0,196.847 m 314.391,5.716 c -4.431,0.481 -5.43,1.511 -6.315,6.509 -0.248,1.404 -0.623,2.775 -0.833,3.049 -0.444,0.578 -2.786,0.33 -3.2,-0.339 -0.188,-0.304 -0.502,-0.266 -1.137,0.139 -1.311,0.837 -5.687,1.417 -6.901,0.915 -2.027,-0.839 -4.367,1.14 -4.704,3.978 -0.195,1.647 -0.497,2.672 -1.233,4.185 -0.14,0.286 -0.624,0.576 -1.077,0.646 -0.453,0.069 -1.192,0.362 -1.642,0.652 -0.701,0.452 -1.026,0.454 -2.282,0.016 -0.888,-0.309 -1.549,-0.372 -1.68,-0.16 -0.125,0.202 -3.337,0.352 -7.577,0.354 -115.44,0.058 -155.885,0.225 -156.308,0.648 -0.612,0.612 -1.805,0.566 -2.691,-0.104 -0.394,-0.298 -1.256,-0.542 -1.915,-0.542 -0.66,0 -1.311,-0.18 -1.446,-0.4 -0.136,-0.22 -1.018,-0.364 -1.96,-0.321 -2.598,0.119 -2.771,0.063 -3.447,-1.126 -0.649,-1.14 -1.568,-1.453 -1.895,-0.644 -0.118,0.293 -0.196,0.242 -0.215,-0.141 -0.016,-0.332 0.302,-0.689 0.707,-0.795 0.719,-0.188 0.721,-0.224 0.079,-1.611 -2.162,-4.674 -2.411,-4.781 -11.668,-4.986 l -4.645,-0.103 v -3.192 -3.192 l -1.652,-1.523 -1.653,-1.523 h -6.662 -6.663 l -1.3,1.3 -1.3,1.3 0.005,37.169 c 0.005,42.731 -0.164,40.105 2.669,41.447 3.5,1.657 5.485,2.088 5.933,1.288 0.8,-1.429 1.361,0.077 1.339,3.596 -0.011,1.861 0.076,5.199 0.193,7.418 0.147,2.797 0.082,4.192 -0.214,4.549 -0.911,1.097 1.909,4.385 4.032,4.701 2.722,0.405 4.927,0.828 5.004,0.96 0.798,1.379 0.957,1.876 0.763,2.383 -0.225,0.586 0.398,1.258 1.166,1.258 0.203,0 0.125,-0.155 -0.173,-0.343 -0.299,-0.189 -0.409,-0.477 -0.245,-0.641 0.819,-0.816 1.71,1.466 1.737,4.449 0.034,3.687 0.185,4.56 0.918,5.293 0.391,0.391 0.527,1.064 0.432,2.131 -0.171,1.914 0.756,3.217 2.742,3.854 0.743,0.238 1.443,0.674 1.556,0.969 0.115,0.298 0.681,0.535 1.279,0.535 1.241,0 2.018,0.746 1.683,1.617 -0.444,1.158 1.69,3.713 3.41,4.081 0.638,0.136 1.441,0.558 1.784,0.937 0.462,0.511 0.942,0.637 1.86,0.488 1.476,-0.24 2.39,1.354 2.39,4.169 0,1.64 1.65,3.099 3.504,3.099 0.32,0 1.007,0.279 1.527,0.62 0.739,0.484 1.092,0.528 1.615,0.202 0.789,-0.493 1.096,0.025 1.115,1.884 0.021,2.068 1.663,3.198 4.648,3.198 0.638,0 1.636,0.249 2.217,0.552 0.581,0.303 1.659,0.552 2.395,0.553 0.81,0.002 1.539,0.249 1.845,0.627 0.344,0.424 0.359,0.535 0.046,0.347 -0.254,-0.152 -0.462,-0.101 -0.462,0.114 0,0.215 0.166,0.39 0.369,0.39 0.203,0 0.369,0.221 0.369,0.49 0,1.5 8.777,4.245 10.932,3.418 0.266,-0.102 0.582,-0.026 0.702,0.168 0.12,0.194 0.54,0.353 0.934,0.353 0.465,0 0.716,0.253 0.716,0.72 0,1.06 0.786,2.601 1.326,2.601 0.258,0 0.794,0.456 1.192,1.014 1.043,1.465 3.024,1.863 10.294,2.069 6.702,0.19 7.441,0.322 6.711,1.202 -0.242,0.291 -0.374,0.578 -0.295,0.638 0.683,0.514 3.039,1.719 3.36,1.719 0.223,0 0.982,0.44 1.687,0.977 1.757,1.341 0.793,1.297 30.338,1.363 20.885,0.046 26.365,0.154 26.291,0.519 -0.13,0.654 2.176,0.594 3.067,-0.08 0.393,-0.298 0.994,-0.547 1.333,-0.554 0.581,-0.011 3.626,-2.801 3.626,-3.322 0,-0.864 2.556,-2.039 4.613,-2.119 1.218,-0.048 4.801,-0.216 7.963,-0.373 l 5.749,-0.286 1.483,-1.407 c 1.102,-1.045 1.441,-1.626 1.321,-2.258 -0.2,-1.045 0.987,-1.447 3.219,-1.09 1.221,0.195 1.483,0.131 1.483,-0.364 0,-0.33 -0.208,-0.619 -0.462,-0.641 -0.253,-0.022 0.286,-0.189 1.2,-0.372 0.913,-0.182 2.137,-0.229 2.721,-0.104 0.688,0.147 1.166,0.056 1.36,-0.258 0.193,-0.312 0.894,-0.447 1.975,-0.381 2.014,0.124 2.652,-0.163 2.029,-0.914 -0.481,-0.578 -0.018,-1.282 2.024,-3.078 1.704,-1.499 2.124,-1.656 4.466,-1.668 1.911,-0.009 2.262,-0.121 2.565,-0.81 0.193,-0.439 0.791,-0.887 1.329,-0.995 1.14,-0.228 4.409,-3.265 4.409,-4.096 0,-0.312 0.251,-0.568 0.558,-0.568 0.308,0 0.847,-0.158 1.2,-0.352 0.352,-0.193 1.419,-0.678 2.371,-1.076 1.539,-0.644 1.756,-0.88 1.966,-2.139 0.334,-2.007 0.496,-2.411 0.873,-2.179 0.182,0.113 0.609,-0.22 0.95,-0.739 1.267,-1.934 1.833,-2.371 3.074,-2.371 2.208,0 4.457,-2.333 4.012,-4.162 -0.11,-0.451 0.034,-1.234 0.319,-1.742 0.285,-0.507 0.524,-0.715 0.531,-0.461 0.025,0.888 1.466,0.498 1.706,-0.461 0.19,-0.754 0.457,-0.923 1.466,-0.923 3.583,0 3.885,-0.789 4.403,-11.483 0.303,-6.245 0.234,-6.09 2.828,-6.361 1.214,-0.127 2.565,-0.481 3.002,-0.787 0.437,-0.307 1.245,-0.557 1.795,-0.557 2.597,0 4.072,-1.595 4.038,-4.367 -0.012,-0.947 -0.131,-4.168 -0.264,-7.158 -0.154,-3.441 -0.108,-5.608 0.126,-5.904 0.202,-0.257 0.486,-0.957 0.629,-1.555 0.144,-0.599 0.374,-0.913 0.512,-0.698 0.311,0.482 1.562,0.322 1.912,-0.244 0.275,-0.445 0.548,-0.515 3.64,-0.934 3.773,-0.512 3.548,1.754 3.566,-36.04 0.008,-17.799 0.125,-32.473 0.261,-32.609 0.135,-0.135 0.157,-0.692 0.048,-1.238 -0.13,-0.65 0.003,-1.159 0.387,-1.477 0.744,-0.618 0.746,-1.452 0.005,-2.271 -0.528,-0.583 -0.528,-0.742 0,-1.763 2.297,-4.443 -4.132,-7.396 -13.811,-6.345 m -226.578,2.409 c 0.85,0.77 0.856,1.007 0.172,6.704 l -0.228,1.898 1.284,0.424 c 0.839,0.277 3.363,0.372 7.287,0.274 8.452,-0.211 8.465,-0.202 8.475,5.728 0.003,1.888 0.137,3.64 0.299,3.894 0.314,0.495 182.797,0.722 185.257,0.23 1.551,-0.31 1.758,-0.795 2.074,-4.852 0.401,-5.151 -0.115,-4.88 9.5,-4.996 9.521,-0.116 8.898,0.229 8.37,-4.626 -0.484,-4.446 -0.404,-4.621 2.422,-5.253 2.781,-0.622 10.695,-0.284 12.254,0.524 l 1.177,0.611 0.03,34.571 c 0.039,45.196 0.283,42.64 -4.083,42.733 -7.022,0.151 -6.437,-0.816 -6.297,10.397 0.143,11.399 0.659,10.443 -5.87,10.867 -6.352,0.413 -5.876,-0.345 -5.883,9.347 -0.003,4.274 -0.127,7.953 -0.276,8.177 -0.573,0.858 -1.978,1.254 -4.446,1.254 -3.235,0 -3.575,0.351 -3.575,3.69 0,3.068 -0.374,3.553 -2.902,3.763 -1.338,0.111 -2.54,0.52 -3.774,1.286 l -1.811,1.122 0.099,2.425 c 0.116,2.872 -0.506,3.581 -3.141,3.581 -2.341,0 -4.329,1.428 -4.846,3.478 -0.578,2.298 -0.958,2.477 -5.471,2.578 -5.146,0.115 -7.115,1.319 -7.119,4.356 -0.002,1.235 -0.886,1.758 -3.021,1.788 -2.542,0.035 -10.601,1.273 -11.021,1.693 -0.21,0.211 -0.5,1.442 -0.643,2.737 -0.353,3.185 -0.189,3.133 -10.831,3.414 -9.901,0.262 -10.279,0.36 -10.279,2.666 0,0.657 -0.296,1.559 -0.657,2.006 l -0.658,0.812 -29.661,-0.042 c -32.675,-0.046 -31.535,0.035 -31.615,-2.247 -0.072,-2.056 -0.091,-2.097 -1.154,-2.509 -0.558,-0.216 -4.336,-0.492 -8.395,-0.612 -12.283,-0.364 -12.022,-0.273 -12.334,-4.284 -0.282,-3.607 -0.479,-3.707 -6.899,-3.507 -6.091,0.189 -6.597,-0.006 -6.597,-2.548 0,-2.909 -3.554,-4.276 -8.927,-3.434 -2.95,0.463 -3.802,-0.153 -3.809,-2.755 -0.01,-3.624 -1.135,-4.337 -5.366,-3.406 -1.825,0.402 -2.229,-0.417 -1.68,-3.398 0.558,-3.031 0.406,-3.21 -3.158,-3.719 -4.7,-0.67 -5.646,-1.684 -4.387,-4.697 1.2,-2.873 0.67,-3.393 -3.485,-3.425 -5.607,-0.042 -5.987,-0.775 -6.63,-12.778 -0.365,-6.835 -0.025,-6.484 -6.298,-6.484 -6.509,0 -6.029,0.841 -6.26,-10.953 -0.22,-11.195 0.142,-10.449 -5.069,-10.449 -5.319,0 -5.087,0.468 -5.398,-10.903 -0.311,-11.376 0.378,-65.472 0.85,-66.713 0.483,-1.269 0.605,-1.289 7.457,-1.224 5.552,0.052 6.22,0.128 6.947,0.786 m 139.586,32.179 c -9.396,0.09 -13.377,0.248 -13.377,0.533 0,0.256 0.442,0.325 1.199,0.188 1.33,-0.241 28.764,-0.288 41.357,-0.071 4.429,0.077 7.943,0.03 7.809,-0.104 -0.135,-0.134 -2.182,-0.244 -4.549,-0.246 -2.366,-0.002 -7.624,-0.098 -11.683,-0.215 -4.059,-0.117 -13.399,-0.155 -20.756,-0.085 m -90.037,0.392 c -0.254,0.086 -0.457,0.434 -0.45,0.772 0.01,0.556 0.044,0.558 0.355,0.026 0.191,-0.327 0.861,-0.604 1.503,-0.622 0.637,-0.019 1.248,-0.123 1.357,-0.232 0.227,-0.227 -2.067,-0.18 -2.765,0.056 m 7.656,0.113 c -2.536,0.111 -3.782,0.256 -2.767,0.323 2.75,0.181 8.45,-0.003 8.745,-0.282 0.313,-0.295 -0.115,-0.298 -5.978,-0.041 m 15.868,0.007 c 10.156,0.259 52.989,0.431 52.736,0.211 -0.084,-0.074 -14.102,-0.206 -31.15,-0.293 -17.048,-0.087 -26.762,-0.051 -21.586,0.082 m 103.69,1.799 c 0,1.391 -0.344,1.589 -3.69,2.127 l -2.768,0.446 2.711,-0.175 c 3.476,-0.224 4.116,-0.566 4.116,-2.205 0,-0.703 -0.083,-1.279 -0.185,-1.279 -0.101,0 -0.184,0.489 -0.184,1.086 m -128.039,1.729 c -0.01,1.405 0.722,1.576 7.207,1.681 5.904,0.095 6.303,0.147 7.086,0.922 0.98,0.97 1.116,0.543 0.185,-0.578 -0.606,-0.73 -1.047,-0.784 -7.093,-0.872 l -6.447,-0.093 -0.466,-0.923 c -0.434,-0.857 -0.467,-0.867 -0.472,-0.137 m 112.261,1.427 c -1.214,0.528 -1.935,1.747 -1.935,3.276 0,2.722 -10.685,4.629 -18.005,3.214 -2.336,-0.452 -3.038,0.255 -3.362,3.387 -0.295,2.85 -0.318,2.884 -2.152,3.24 l -1.388,0.269 1.199,0.042 c 1.729,0.061 2.675,-1.025 2.675,-3.07 0,-0.9 0.156,-2.046 0.346,-2.546 l 0.346,-0.909 6.019,0.197 c 9.67,0.316 14.691,-0.908 14.691,-3.581 0,-2.649 1.14,-3.462 5.221,-3.727 l 3.451,-0.224 -2.952,-0.045 c -1.83,-0.028 -3.409,0.153 -4.154,0.477 m -96.745,5.4 c -0.048,1.231 0.867,1.358 10.714,1.486 11.365,0.147 11.034,0.05 11.034,3.238 0,3.815 -1.726,3.489 20.236,3.82 10.852,0.163 21.085,0.145 23.554,-0.04 3.206,-0.241 -1.709,-0.344 -18.514,-0.386 -26.539,-0.068 -24.636,0.2 -24.907,-3.5 -0.272,-3.704 0.199,-3.559 -11.522,-3.559 h -9.904 l -0.334,-0.83 c -0.226,-0.562 -0.341,-0.636 -0.357,-0.229 M 88.192,398.893 c -0.305,0.197 -1.01,0.36 -1.568,0.363 -0.559,0.003 -1.015,0.172 -1.015,0.375 0,0.203 0.898,0.369 1.995,0.369 1.813,0 1.977,-0.067 1.802,-0.738 -0.216,-0.826 -0.413,-0.886 -1.214,-0.369"
       stroke="none"
       fill="#e5ca4f"
       fill-rule="evenodd" />
  </g>
</svg>
